<svg width="902" height="627" viewBox="0 0 902 627" fill="none" xmlns="http://www.w3.org/2000/svg">
<g id="energia 1">
<path id="sun" d="M400.8 455.2C526.39 455.2 628.2 353.389 628.2 227.8C628.2 102.21 526.39 0.399902 400.8 0.399902C275.21 0.399902 173.4 102.21 173.4 227.8C173.4 353.389 275.21 455.2 400.8 455.2Z" fill="#F4B615"/>
<g id="energia">
<path id="Vector" d="M159.5 547.3C172.4 551.8 186.7 549.3 197.2 540.7C210.4 529.6 214.6 511.3 217.9 494.4L227.9 444.4L207 458.8C192 469.1 176.6 479.8 166.2 494.8C155.8 509.8 151.3 530.2 159.6 546.4" fill="#E6E6E6"/>
<path id="Vector_2" d="M161.2 607.9C159.1 592.5 156.9 576.9 158.4 561.4C159.7 547.6 163.9 534.1 172.5 523C177.1 517.1 182.6 512.1 188.9 508.2C190.5 507.2 192 509.8 190.4 510.8C179.5 517.7 171.1 527.8 166.4 539.8C161.2 553.1 160.3 567.6 161.2 581.7C161.7 590.2 162.9 598.7 164.1 607.2C164.3 608 163.8 608.8 163.1 609C162.3 609.2 161.5 608.7 161.2 607.9Z" fill="#F2F2F2"/>
<path id="Vector_3" d="M301 586.7C306 592.6 313.8 595.5 321.5 594.3C331.2 592.7 338.5 584.9 345 577.5L364.3 555.8L349.9 556.8C339.5 557.6 328.9 558.4 319.5 562.7C310.1 567 302 575.8 301.4 586.2" fill="#E6E6E6"/>
<path id="Vector_4" d="M284.5 617C287.9 608.8 291.3 600.5 296.5 593.3C301.1 586.9 307.1 581.5 314.5 578.5C318.4 576.9 322.6 576.1 326.8 575.9C327.9 575.9 327.9 577.6 326.8 577.6C319.5 577.8 312.4 580.4 306.7 584.9C300.3 589.9 295.7 596.8 292.1 604C289.9 608.4 288 612.9 286.2 617.4C286.1 617.8 285.6 618.1 285.2 618C284.6 618 284.3 617.5 284.5 617Z" fill="#F2F2F2"/>
<path id="Vector_5" d="M181.6 580.7C187.1 589.1 196.6 594 206.7 593.6C219.4 593 230 584.1 239.5 575.7L267.7 550.8L249.1 549.9C235.7 549.3 222 548.7 209.2 552.8C196.3 557 184.5 567 182.2 580.2" fill="#E6E6E6"/>
<path id="Vector_6" d="M155.3 616.8C165.5 598.8 177.3 578.8 198.3 572.4C204.2 570.6 210.3 570 216.4 570.5C218.3 570.7 217.8 573.6 215.9 573.5C205.7 572.7 195.5 575.4 187 581.1C178.9 586.6 172.5 594.4 167.1 602.5C163.8 607.5 160.9 612.7 157.9 617.9C157.1 619.7 154.3 618.5 155.3 616.8Z" fill="#F2F2F2"/>
<path id="Vector_7" d="M423.9 309.7C444.1 298.6 469.3 300.8 491.1 308.4C512.9 316 532.6 328.4 553.8 337.6C618.4 365.7 696.3 361.2 757.3 325.8C763.1 339.2 756.9 354.5 750.1 367.5C743.3 380.5 735.6 394.4 738.4 408.7C741.8 427 761 438 768.8 455C776.2 471.1 772.2 490 766.6 506.8C760.9 523.6 753.6 540.5 754.5 558.2C755.5 575.9 768.3 594.6 786 594.6C759.7 598.7 732.9 602.8 706.7 598.6C680.4 594.4 654.3 580.5 642.1 556.9C636 545.1 633.7 531.5 626.7 520.2C614.8 501 592 492 570.4 485.2C548.8 478.4 525.7 471.8 510.5 455C496 439 491.4 416.8 483.8 396.6C470.9 362.9 448.4 333.6 419.2 312.4" fill="#0C2A52"/>
<path id="Vector_8" d="M447.3 225.9C440.2 222.6 431.5 221.5 424.3 224.6C417.1 227.7 412.2 235.5 414.5 242.5C415.6 245.7 418 248.8 417 251.9C416.3 254.4 413.8 256 411.3 257.1C408.8 258.2 406.1 259.2 404.3 261.2C402.5 263.2 402.1 266.5 404.4 268C405.1 268.5 406.1 268.7 406.8 269.3C408 270.3 408.5 272 408 273.5C407.4 275 406.4 276.3 405.1 277.3C402.6 279.5 399.2 282 400 285.1C400.6 286.8 402 288.1 403.7 288.6C405.5 289.1 407.3 289.3 409.1 289.3L484.1 291.7C486.6 291.9 489.1 291.7 491.5 291.3C493.9 290.9 496 289.4 497.3 287.4C498.7 284.7 497.8 281.5 496 279C494.2 276.5 491.7 274.6 489.6 272.3C487.5 270 485.8 267.2 486.2 264.2C486.5 261.8 488 259.8 489.2 257.7C490.4 255.6 491 252.9 489.5 250.9C487.5 248.1 482.6 248.4 480.3 245.8C478.6 243.8 478.9 241 478.7 238.5C478.3 232.4 474.1 226.7 468.1 224.1C461.9 221.5 454.9 221.9 449.1 225.4L447.3 225.9Z" fill="#2F2E41"/>
<path id="Vector_9" d="M399.9 606.1L388.2 602.6L396.2 555.6L413.5 560.8L399.9 606.1Z" fill="#F9C8C2"/>
<path id="Vector_10" d="M399.5 618.4L361.6 607L361.7 606.5C364.1 598.4 372.7 593.7 380.9 596.2L404 603.1L399.5 618.4Z" fill="#2F2E41"/>
<path id="Vector_11" d="M510.7 606.5H498.4L492.6 559.2H510.7V606.5Z" fill="#F9C8C2"/>
<path id="Vector_12" d="M513.8 618.4H474.3V617.9C474.3 609.4 481.2 602.5 489.7 602.5H513.8V618.4Z" fill="#2F2E41"/>
<path id="Vector_13" d="M493.7 570.7C491.5 570.7 489.6 569.1 489.3 566.9L471 453.4C470.7 451.5 468.9 450.2 467 450.5C465.8 450.7 464.8 451.5 464.3 452.6L417.1 566.1C416.2 568.3 413.8 569.4 411.5 568.6L394.5 562.9C392.3 562.2 391 559.9 391.5 557.6L430.1 386.6C430.5 384.9 431.8 383.6 433.5 383.2L485.3 371.2C486.6 370.9 487.9 371.2 489 372C523.1 396.8 520.2 477.8 513.9 565.8C513.7 568.1 511.9 569.9 509.6 570L493.7 570.7C493.8 570.7 493.8 570.7 493.7 570.7Z" fill="#2F2E41"/>
<path id="Vector_14" d="M450.1 291.1C463.686 291.1 474.7 280.086 474.7 266.5C474.7 252.914 463.686 241.9 450.1 241.9C436.514 241.9 425.5 252.914 425.5 266.5C425.5 280.086 436.514 291.1 450.1 291.1Z" fill="#F9C8C2"/>
<path id="Vector_15" d="M451.1 393.8C445.2 393.8 439.4 392.4 434.1 389.9L433.9 389.8L433.8 389.6L411.8 332.5L411.4 322.6C410.8 309.5 421 298.4 434.1 297.8C434.9 297.8 435.7 297.8 436.4 297.8L459.8 299.1C472.3 299.8 482.2 310.2 482.2 322.7C482.8 323.9 487.1 333 478.7 341.6C478.4 343.6 475.4 363.8 486.6 375L486.9 375.3L486.6 375.6C486.5 375.9 472.2 393.8 451.1 393.8Z" fill="white"/>
<path id="Vector_16" d="M484 398.1C489.2 396.2 491.9 390.4 490 385.2C489.8 384.6 489.5 384.1 489.3 383.6L512.7 356.6L494.3 354.2L474.9 380.2C470.3 383.3 469 389.6 472.1 394.2C474.7 398.1 479.6 399.7 484 398.1Z" fill="#F9C8C2"/>
<path id="Vector_17" d="M498.6 377.2C497.7 377.2 496.9 376.9 496.1 376.5L484.5 368.9C482.5 367.6 481.9 364.9 483.1 362.8L491.5 348.7C493.3 345.7 492.3 341.9 489.3 340.1C489.1 340 488.9 339.9 488.7 339.8L464.7 329C458.6 326.2 455.2 319.6 456.6 313.1C458.2 305.4 465.8 300.5 473.5 302.1C474.7 302.4 475.9 302.8 477.1 303.4L513.6 322.1C523 326.9 526.8 338.5 521.9 347.9C521.5 348.8 521 349.6 520.4 350.4L502.4 375.4C501.4 376.5 500 377.2 498.6 377.2Z" fill="white"/>
<path id="Vector_18" d="M424.9 263C432.7 262.4 439.1 254.6 438.3 246.9C438.1 253.5 442.9 259.2 449.4 260.1C453 260.5 456.9 259.4 460 261.2C463.4 263.2 464.5 268 468.1 269.7C471.6 271.4 475.9 269.1 477.6 265.7C479.3 262.3 478.9 258.1 477.8 254.5C472.6 237.8 454.9 228.4 438.2 233.6C433.2 235.1 428.7 237.9 425.1 241.5C421.8 244.8 419.2 249 418.8 253.6C418.4 258.2 420.5 263.2 424.7 265.3L424.9 263Z" fill="#2F2E41"/>
<path id="Vector_19" d="M367.8 194.9C372.7 197.5 374.5 203.6 371.9 208.5C371.6 209 371.3 209.5 370.9 210L390.1 240.2L371.5 239.9L356.2 211.3C352.1 207.5 351.8 201.2 355.5 197C358.6 193.6 363.7 192.7 367.8 194.9Z" fill="#F9C8C2"/>
<path id="Vector_20" d="M383.2 216.4L407.9 274.7L433.8 318.6C437.8 325.4 435.5 334 428.8 338C427.8 338.6 426.8 339 425.7 339.4C419 341.4 411.8 338.2 408.7 331.8L358.8 225.3C357.7 223 358.7 220.4 361 219.3C361.2 219.2 361.3 219.1 361.5 219.1L377.7 213.9C378 213.8 378.3 213.7 378.6 213.7C380.6 213.5 382.5 214.6 383.2 216.4Z" fill="white"/>
<rect id="Rectangle 1" y="619" width="902" height="8" fill="#E6E6E6"/>
</g>
<path id="promien2" d="M455.4 92.2V174.2C455.4 174.8 455 175.2 454.4 175.2C453.8 175.2 453.4 174.8 453.4 174.2V92.2C453.4 91.6 453.8 91.2 454.4 91.2C455 91.2 455.4 91.7 455.4 92.2Z" fill="white" stroke="white" stroke-width="3" stroke-miterlimit="10"/>
<path id="promien3" d="M542.2 161.8L513.9 190.1C513.5 190.5 512.9 190.5 512.5 190.1C512.1 189.7 512.1 189.1 512.5 188.7L540.8 160.4C541.2 160 541.8 160 542.2 160.4C542.6 160.7 542.6 161.4 542.2 161.8Z" fill="white" stroke="white" stroke-width="3" stroke-miterlimit="10"/>
<path id="promien1" d="M366.6 161.8L394.9 190.1C395.3 190.5 395.9 190.5 396.3 190.1C396.7 189.7 396.7 189.1 396.3 188.7L368 160.4C367.6 160 367 160 366.6 160.4C366.2 160.7 366.2 161.4 366.6 161.8Z" fill="white" stroke="white" stroke-width="3" stroke-miterlimit="10"/>
</g>
</svg>
