<svg width="63" height="63" viewBox="0 0 63 63" fill="none" xmlns="http://www.w3.org/2000/svg">
<g filter="url(#filter0_d)">
<circle cx="31.5" cy="27.5" r="27.5" fill="white"/>
</g>
<g clip-path="url(#clip0)">
<path d="M28.1321 12.875C28.3962 12.3479 28.6604 11.8209 29.0566 11.2939C29.3207 11.0304 29.5849 10.7668 29.717 10.5033C30.2453 9.97631 30.9057 9.58104 31.566 9.18576C32.3585 8.79049 33.1509 8.52698 34.0755 8.26347C35.3962 7.99995 36.9811 7.99995 38.434 8.13171C39.3585 8.13171 40.283 8.26347 41.2075 8.39522C41.3396 8.39522 41.4717 8.52698 41.6038 8.52698C41.8679 8.52698 41.8679 8.65874 41.8679 8.79049C41.8679 9.31752 41.8679 9.97631 41.8679 10.5033C41.8679 11.2939 41.8679 12.0844 41.8679 12.875C41.8679 13.2702 41.8679 13.6655 41.8679 14.0608C41.8679 14.456 41.8679 14.456 41.4717 14.456C41.3396 14.456 41.2075 14.456 41.2075 14.456C40.4151 14.456 39.6226 14.456 38.6981 14.456C38.434 14.456 38.1698 14.456 37.7736 14.456C37.2453 14.5878 36.5849 14.7195 36.1887 15.1148C36.1887 15.1148 36.0566 15.1148 36.0566 15.2466C35.2641 15.9054 34.8679 16.6959 34.8679 17.75C34.8679 17.8817 34.8679 17.8817 34.8679 18.0135C34.8679 18.6723 34.8679 19.4628 34.8679 20.1216C34.8679 20.9121 34.8679 21.7027 34.8679 22.625C34.8679 22.8885 34.8679 22.8885 35.1321 22.8885C35.5283 22.8885 35.9245 22.8885 36.4528 22.8885C37.2453 22.8885 38.0377 22.8885 38.8302 22.8885C39.6226 22.8885 40.4151 22.8885 41.3396 22.8885H41.4717C41.6038 22.8885 41.7358 22.8885 41.6038 23.152C41.4717 23.8108 41.4717 24.4695 41.3396 25.1283C41.2075 25.3918 41.2075 25.6554 41.2075 25.9189C41.0755 26.4459 41.0755 26.9729 40.9434 27.6317C40.8113 28.4223 40.6792 29.2128 40.5472 30.0033C40.4151 30.0033 40.283 30.0033 40.1509 30.0033C39.6226 30.0033 39.2264 30.0033 38.6981 30.0033C37.9056 30.0033 37.1132 30.0033 36.1887 30.0033C35.7924 30.0033 35.2641 30.0033 34.8679 30.0033C34.7358 30.0033 34.7358 30.1351 34.7358 30.1351C34.7358 30.9256 34.7358 31.7162 34.7358 32.375C34.7358 33.1655 34.7358 33.956 34.7358 34.8783C34.7358 35.6689 34.7358 36.4594 34.7358 37.3817C34.7358 38.1722 34.7358 38.9628 34.7358 39.7533C34.7358 40.5439 34.7358 41.3344 34.7358 42.2567C34.7358 43.0472 34.7358 43.8378 34.7358 44.7601C34.7358 45.5506 34.7358 46.3412 34.7358 47.1317C32.2264 47.1317 29.717 47.1317 27.2075 47.1317C27.0755 47.1317 27.0755 47.1317 27.0755 46.8682C27.0755 46.0777 27.0755 45.4189 27.0755 44.6283C27.0755 43.8378 27.0755 43.0472 27.0755 42.125C27.0755 41.3344 27.0755 40.5439 27.0755 39.6216C27.0755 38.831 27.0755 38.0405 27.0755 37.25C27.0755 36.4594 27.0755 35.6689 27.0755 34.7466C27.0755 33.956 27.0755 33.1655 27.0755 32.2432C27.0755 31.5844 27.0755 30.9256 27.0755 30.3986C27.0755 29.7398 27.0755 29.7398 26.4151 29.8716C26.1509 29.8716 25.8868 29.8716 25.6226 29.8716C25.0943 29.8716 24.434 29.8716 23.9057 29.8716C23.1132 29.8716 22.3207 29.8716 21.3962 29.8716C21.1321 29.8716 21 29.8716 20.7358 29.8716C20.7358 29.081 20.7358 28.2905 20.7358 27.5C20.7358 27.2364 20.7358 26.8412 20.7358 26.5777C20.7358 26.0506 20.7358 25.5236 20.7358 24.9966C20.7358 24.3378 20.7358 23.679 20.7358 23.0202C20.7358 22.7567 20.7358 22.7567 21 22.7567C21.1321 22.7567 21.2641 22.7567 21.3962 22.7567C22.1887 22.7567 22.9811 22.7567 23.9057 22.7567C24.6981 22.7567 25.4906 22.7567 26.4151 22.7567C26.5472 22.7567 26.6792 22.7567 26.8113 22.7567C27.0755 22.7567 27.0755 22.625 27.0755 22.4932C27.0755 21.7027 27.0755 20.9121 27.0755 19.9898C27.0755 19.1993 27.0755 18.4087 27.0755 17.6182C27.0755 16.8277 27.0755 16.0371 27.2075 15.1148C27.6038 14.456 27.7358 13.6655 28.1321 12.875Z" fill="#002C53"/>
</g>
<defs>
<filter id="filter0_d" x="0" y="0" width="63" height="63" filterUnits="userSpaceOnUse" color-interpolation-filters="sRGB">
<feFlood flood-opacity="0" result="BackgroundImageFix"/>
<feColorMatrix in="SourceAlpha" type="matrix" values="0 0 0 0 0 0 0 0 0 0 0 0 0 0 0 0 0 0 127 0"/>
<feOffset dy="4"/>
<feGaussianBlur stdDeviation="2"/>
<feColorMatrix type="matrix" values="0 0 0 0 0 0 0 0 0 0 0 0 0 0 0 0 0 0 0.25 0"/>
<feBlend mode="normal" in2="BackgroundImageFix" result="effect1_dropShadow"/>
<feBlend mode="normal" in="SourceGraphic" in2="effect1_dropShadow" result="shape"/>
</filter>
<clipPath id="clip0">
<rect width="21" height="39" fill="white" transform="translate(21 8)"/>
</clipPath>
</defs>
</svg>
