<svg width="902" height="500" viewBox="0 0 902 500" fill="none" xmlns="http://www.w3.org/2000/svg">
<g id="undraw_team_goals_hrii 1">
<g id="rest">
<path id="Vector" d="M778.925 498.202C846.897 498.202 902 490.573 902 481.163C902 471.754 846.897 464.125 778.925 464.125C710.953 464.125 655.85 471.754 655.85 481.163C655.85 490.573 710.953 498.202 778.925 498.202Z" fill="#E6E6E6"/>
<path id="Vector_2" d="M123.434 500C191.605 500 246.868 492.372 246.868 482.962C246.868 473.552 191.605 465.924 123.434 465.924C55.2633 465.924 0 473.552 0 482.962C0 492.372 55.2633 500 123.434 500Z" fill="#E6E6E6"/>
<path id="Vector_3" d="M205.702 228.618L208.877 235.208C208.877 235.208 226.899 259.365 215.766 263.149C204.632 266.934 198.725 240.238 198.725 240.238L195.781 236.502L205.702 228.618Z" fill="#FFB8B8"/>
<path id="Vector_4" d="M184.942 103.832L187.904 102.574C187.904 102.574 191.41 103.832 191.41 109.246C191.41 114.66 187.098 193.701 187.098 193.701L195.722 237.011L183.864 239.177L165.537 199.115L184.942 103.832Z" fill="#575A89"/>
<path id="Vector_5" d="M184.942 103.832L187.904 102.574C187.904 102.574 191.41 103.832 191.41 109.246C191.41 114.66 187.098 193.701 187.098 193.701L210.275 231.056L195.183 241.883L165.537 199.115L184.942 103.832Z" fill="#0C2A52"/>
<path id="Vector_6" d="M182.785 229.432C182.785 229.432 196.8 234.845 195.722 244.59C194.644 254.335 180.629 448.148 180.629 448.148L184.942 469.803L143.976 470.886L142.898 331.211L113.791 470.886H72.8254L101.932 225.101L182.785 229.432Z" fill="#2F2E41"/>
<path id="Vector_7" d="M179.551 465.472L189.254 475.217C189.254 475.217 211.893 479.548 206.502 487.127C201.112 494.706 145.054 484.961 145.054 484.961L146.132 467.637L179.551 465.472Z" fill="#0C2A52"/>
<path id="Vector_8" d="M109.479 465.472L119.181 475.217C119.181 475.217 141.82 479.548 136.43 487.127C131.04 494.706 74.9815 484.961 74.9815 484.961L76.0595 467.637L109.479 465.472Z" fill="#0C2A52"/>
<path id="Vector_9" d="M148.288 64.8533C162.577 64.8533 174.161 53.2189 174.161 38.8672C174.161 24.5155 162.577 12.8812 148.288 12.8812C133.999 12.8812 122.415 24.5155 122.415 38.8672C122.415 53.2189 133.999 64.8533 148.288 64.8533Z" fill="#FFB8B8"/>
<path id="Vector_10" d="M164.459 54.0255L162.302 98.4184L128.883 78.9294L133.195 54.0255H164.459Z" fill="#FFB8B8"/>
<path id="Vector_11" d="M127.806 68.1015L159.068 90.8397L164.459 74.5979L174.161 100.584L168.77 147.143L127.806 68.1015Z" fill="#F4B615"/>
<path id="Vector_12" d="M127.805 64.8533L162.303 112.494L163.552 72.6962L174.161 81.0946V89.7567L189.254 103.832L183.863 157.97L182.785 221.852C182.785 221.852 189.254 227.266 187.098 230.515C184.942 233.763 176.317 241.342 166.615 241.342C156.913 241.342 96.5422 233.763 96.5422 229.432C96.5422 225.101 98.6983 168.798 98.6983 168.798V93.0049L124.571 73.5153L127.805 64.8533Z" fill="#0C2A52"/>
<path id="Vector_13" d="M94.3859 244.59L108.401 265.162L113.791 241.342L107.323 237.011L94.3859 244.59Z" fill="#FFB8B8"/>
<path id="Vector_14" opacity="0.2" d="M162.369 275.615L141.645 331.997L143.668 332.747L164.392 276.365L162.369 275.615Z" fill="black"/>
<path id="Vector_15" d="M132.657 13.4225C132.657 13.4225 135.891 -2.81873 154.217 0.429521L152.061 1.51226C152.061 1.51226 169.31 -0.653241 167.154 9.09153C167.154 9.09153 181.168 17.7536 177.934 27.4983C176.033 33.1463 174.59 38.94 173.622 44.8224L170.388 41.5741C170.388 41.5741 167.154 19.9191 147.749 22.0846C133.196 23.7087 127.266 30.6113 125.75 35.5852C125.052 37.9239 124.162 40.2001 123.087 42.3902L121.876 42.6569C121.876 42.6569 115.408 18.8363 132.657 13.4225Z" fill="#2F2E41"/>
<path id="Vector_16" d="M110.557 91.9221L100.743 91.4646L98.6983 93.0049C96.3515 95.3605 94.189 97.8945 92.2301 100.584C90.074 103.832 62.045 182.873 62.045 182.873C61.5249 187.674 62.2683 192.528 64.2011 196.949C67.4352 204.528 93.3081 250.004 93.3081 250.004L112.713 238.094L86.8399 185.039L105.167 159.053L110.557 91.9221Z" fill="#0C2A52"/>
<path id="Vector_17" d="M742.347 431.636V460.801H759.77L762.093 431.636H742.347Z" fill="#F9C8C2"/>
<path id="Vector_18" d="M783.581 433.386L790.549 449.718L802.164 454.384L804.487 421.72L795.195 417.055L783.581 433.386Z" fill="#F9C8C2"/>
<path id="Vector_19" d="M798.68 447.385C798.68 447.385 797.694 440.021 787.734 443.12L789.388 464.883C789.388 464.883 781.257 489.381 792.872 487.048C804.487 484.715 811.456 462.55 811.456 462.55L819.586 425.22L799.953 419.443L798.68 447.385Z" fill="#0C2A52"/>
<path id="Vector_20" d="M725.506 200.073C725.506 200.073 709.245 323.729 715.052 337.728C720.86 351.726 781.838 442.135 781.838 442.135L808.552 407.138L748.736 331.895L804.487 254.901L809.133 208.239L725.506 200.073Z" fill="#2F2E41"/>
<path id="Vector_21" d="M789.387 244.402L804.721 252.552L804.487 254.901L766.739 444.468L737.701 438.635L756.866 305.063L789.387 244.402Z" fill="#2F2E41"/>
<path id="Vector_22" d="M740.605 452.051L733.636 462.55C733.636 462.55 718.537 488.215 734.798 488.215C751.059 488.215 758.028 488.215 759.189 482.382C760.042 478.407 761.207 474.506 762.674 470.716L761.512 455.551L740.605 452.051Z" fill="#0C2A52"/>
<path id="Vector_23" d="M785.903 65.9177C800.016 65.9177 811.456 54.4273 811.456 40.2532C811.456 26.0791 800.016 14.5887 785.903 14.5887C771.791 14.5887 760.35 26.0791 760.35 40.2532C760.35 54.4273 771.791 65.9177 785.903 65.9177Z" fill="#F9C8C2"/>
<path id="Vector_24" d="M764.996 48.4192C764.996 48.4192 768.481 68.2508 758.027 71.7505C747.574 75.2502 770.804 121.913 770.804 121.913L797.518 77.5833C797.518 77.5833 790.549 62.418 795.195 55.4185L764.996 48.4192Z" fill="#F9C8C2"/>
<path id="Vector_25" d="M770.804 102.081L764.499 64.0659L752.22 71.7505L719.698 90.4156L732.475 145.244L727.829 179.075C727.829 179.075 722.021 189.574 723.183 194.24C724.344 198.906 722.021 201.239 723.183 202.406C724.344 203.572 782.419 212.905 799.841 219.904C817.263 226.904 819.586 229.237 818.425 223.404C817.263 217.571 804.487 189.574 804.487 189.574L814.94 142.911L828.878 102.081L795.041 70.7176L770.804 102.081Z" fill="#F4B615"/>
<path id="Vector_26" d="M820.748 153.41L828.878 175.575L807.971 214.072L801.149 219.401C800.072 220.243 799.264 221.384 798.827 222.682C798.39 223.981 798.342 225.38 798.689 226.706L803.326 244.402L815.478 226.275C815.478 226.275 848.624 186.074 847.462 175.575C846.301 165.076 842.816 148.744 842.816 148.744L820.748 153.41Z" fill="#F9C8C2"/>
<path id="Vector_27" d="M705.76 134.745L699.953 163.909L677.885 218.738C677.885 218.738 653.494 242.069 665.108 246.735C676.723 251.402 690.661 223.404 690.661 223.404L718.537 170.909L728.99 139.411L705.76 134.745Z" fill="#F9C8C2"/>
<path id="Vector_28" d="M816.102 99.7481L825.452 98.905L828.878 102.081C828.878 102.081 848.624 146.411 846.301 151.077C843.978 155.743 820.748 158.076 820.748 158.076L811.456 130.079L816.102 99.7481Z" fill="#F4B615"/>
<path id="Vector_29" d="M727.829 91.5821L722.067 89.0564L719.698 90.4156C719.698 90.4156 696.469 137.078 702.276 139.411C708.083 141.744 735.959 145.244 735.959 145.244L727.829 91.5821Z" fill="#F4B615"/>
<path id="Vector_30" opacity="0.2" d="M752.22 337.444L745.14 386.792L738.549 376.625L752.22 337.444Z" fill="black"/>
<path id="Vector_31" d="M802.512 25.0541C802.512 25.0541 805.086 31.8575 793.141 28.3698C793.141 28.3698 788.409 30.6867 788.684 26.7324C788.684 26.7324 782.162 32.8972 780.921 28.8365C779.68 24.7758 776.281 29.8353 776.281 29.8353L773.707 23.0319L770.4 26.7734L759.788 26.0284C759.788 26.0284 758.59 -0.546366 794.792 4.64406C830.993 9.83449 810.187 50.3458 810.187 50.3458C810.187 50.3458 810.416 42.8279 807.109 46.5693C803.801 50.3108 802.512 25.0541 802.512 25.0541Z" fill="#2F2E41"/>
</g>
<path id="kwadrat" d="M471.089 185.134H408.213V121.982H450.879V123.487H409.71V183.631H469.592V153.558H471.089V185.134Z" fill="#3F3D56"/>
<rect id="Rectangle 2" x="218" y="235" width="466" height="113" fill="#F4B615"/>
<path id="check" d="M472.823 120.041C473.456 119.339 473.878 118.872 474.51 118.17C474.932 117.468 475.565 117 476.408 117C477.463 117 478.306 117.234 478.939 118.17C479.361 118.638 479.782 119.106 480.204 119.573C480.626 120.041 481.048 120.743 481.68 121.211C481.891 121.445 482.313 121.913 482.524 122.147C483.156 122.849 483.789 123.55 484 124.486C484 124.72 484 125.188 484 125.422C484 125.656 484 125.656 484 125.89C483.789 126.592 483.367 127.294 482.946 127.995C482.313 128.463 481.891 129.165 481.259 129.867C480.837 130.335 480.415 130.569 480.204 131.037C479.361 131.972 478.517 132.908 477.463 134.078C477.041 134.546 476.619 135.014 476.197 135.482C475.565 136.183 474.721 137.119 473.878 138.055C473.456 138.523 473.034 138.757 472.823 139.225C471.98 140.161 470.925 141.096 470.082 142.266C469.66 142.734 469.238 143.202 468.816 143.67C467.973 144.606 466.918 145.541 466.075 146.711C465.653 147.179 465.231 147.413 465.02 147.881C464.177 148.817 463.333 149.752 462.279 150.922C461.857 151.39 461.435 151.624 461.224 152.092C460.592 152.794 460.17 153.261 459.537 153.963C459.116 154.431 458.905 154.665 458.483 155.133C458.061 155.601 457.639 156.069 457.218 156.537C456.374 157.472 455.32 158.408 454.476 159.578C454.054 160.046 453.633 160.28 453.422 160.748C452.578 161.683 451.735 162.619 450.68 163.789C450.259 164.257 449.837 164.725 449.415 165.193C448.993 165.661 448.361 166.128 447.939 166.83C447.306 167.532 446.673 168 445.619 168C444.565 168 443.932 167.532 443.088 166.83C442.667 166.362 442.034 165.661 441.612 165.193C441.19 164.725 440.769 164.257 440.347 163.789C439.503 162.853 438.66 161.683 437.605 160.748C437.184 160.28 436.762 159.812 436.34 159.344C435.497 158.408 434.653 157.472 433.81 156.537C433.388 156.069 432.966 155.601 432.544 155.133C431.701 154.197 430.857 153.028 429.803 152.092C429.381 151.624 428.959 151.156 428.537 150.688C427.694 149.752 426.85 148.583 425.796 147.647C425.374 147.179 424.952 146.711 424.531 146.243C424.109 145.775 423.687 145.307 423.265 144.839C422.633 144.138 422.211 143.67 422 142.734C422 142.5 422 142.266 422 142.032C422 141.798 422 141.564 422 141.33C422.211 140.394 422.633 139.927 423.054 139.225C424.32 138.991 424.741 138.523 425.163 138.055C425.585 137.587 426.218 136.885 426.639 136.417C427.061 135.95 427.483 135.716 427.905 135.248C428.537 134.312 429.592 134.078 430.646 134.078C431.49 134.312 432.333 134.78 432.966 135.482C433.388 136.183 434.02 136.651 434.442 137.119C434.653 137.353 434.864 137.821 435.286 138.055C436.34 139.225 437.184 140.161 438.238 141.33C438.449 141.798 438.871 142.032 439.082 142.266C440.136 143.436 440.98 144.372 442.034 145.541C442.245 146.009 442.667 146.243 442.878 146.477C443.721 147.647 444.776 148.583 445.83 149.752H446.041C447.095 148.583 447.939 147.647 448.993 146.477C449.204 146.243 449.626 145.775 449.837 145.541C450.891 144.372 451.735 143.436 452.789 142.266C453.211 142.032 453.422 141.564 453.633 141.33C454.476 140.394 455.531 139.225 456.374 138.055C456.796 137.821 457.007 137.353 457.218 137.119C458.272 135.95 459.116 135.014 460.17 133.844C460.381 133.61 460.803 133.142 461.014 132.908C462.068 131.739 463.122 130.803 463.966 129.633C464.388 129.165 464.81 128.931 465.02 128.697C466.075 127.528 466.918 126.592 467.973 125.422C468.395 125.188 468.605 124.72 468.816 124.486C469.871 123.317 470.714 122.381 471.769 121.211C472.19 120.743 472.401 120.275 472.823 120.041Z" fill="#F4B615"/>
<rect id="prostokat1" x="243" y="253" width="409" height="17" fill="#E6E6E6"/>
<rect id="prostokat2" x="243" y="282" width="251" height="17" fill="#E6E6E6"/>
<rect id="prostokat3" x="243" y="311" width="251" height="17" fill="#E6E6E6"/>
</g>
</svg>
