<svg width="79" height="46" viewBox="0 0 79 46" fill="none" xmlns="http://www.w3.org/2000/svg">
<path d="M52.8886 39.6849C52.5927 40.0437 52.2968 40.3307 52.0749 40.6896C51.0393 41.9095 50.0777 43.1295 49.0421 44.2777C47.4888 46.0718 44.9738 46.5023 42.9766 45.2106C42.2369 44.7083 41.6451 44.1342 40.9054 43.5601C40.7575 43.4165 40.5356 43.273 40.3876 43.1295C40.3137 43.273 40.1657 43.3448 40.0918 43.4165C38.3904 45.2106 36.2453 46.0718 33.7303 45.9282C31.9551 45.8565 30.4017 45.2106 29.0702 43.9906C25.5197 40.9048 21.9691 37.819 18.4925 34.6615C18.2706 34.4462 18.0487 34.3744 17.6788 34.3744C12.5749 34.3744 7.47097 34.3744 2.36704 34.3744C1.4794 34.3744 0.7397 34.1591 0.29588 33.298C0.07397 33.1544 0 32.8674 0 32.5803C0 24.9017 0 17.2231 0 9.54446C0 8.46802 0.81367 7.67863 1.92322 7.67863C5.32584 7.67863 8.80243 7.67863 12.2051 7.67863C13.2406 7.67863 14.2762 7.67863 15.3118 7.67863C15.6077 7.67863 15.7556 7.60687 15.9775 7.39158C18.1227 5.31045 20.2678 3.15757 22.4869 1.07644C23.2266 0.358814 24.0403 0 25.0758 0C28.4785 0 31.8811 0 35.2837 0C35.3577 0 35.3577 0 35.5056 0.0717629C35.4316 0.143526 35.2837 0.215289 35.2097 0.287052C32.029 3.0858 28.9223 5.88456 25.7416 8.68331C24.1142 10.1186 23.0787 11.7691 22.7828 13.8502C22.339 16.4337 23.0047 18.8019 24.78 20.8112C26.1854 22.4618 28.1086 23.3947 30.2537 23.7535C33.0646 24.2559 35.4316 23.4665 37.5028 21.6724C38.6863 20.6677 39.8699 19.5913 40.9794 18.5866C41.2013 18.3713 41.3493 18.3713 41.5712 18.5866C47.5627 23.3229 53.5543 28.0593 59.6199 32.7956C61.4691 34.2309 61.691 36.5991 60.2116 38.3214C59.8418 38.752 59.4719 39.1825 59.176 39.6131C57.7706 41.2637 55.3296 41.4789 53.6283 40.1872C53.3324 40.0437 53.1105 39.9002 52.8886 39.6849Z" fill="white"/>
<path d="M44.3081 15.7161C45.3436 14.7832 46.3792 13.8502 47.4148 12.9891C48.2285 12.1997 48.3764 11.2668 47.7846 10.4056C47.1189 9.40094 45.6395 9.25741 44.7519 10.1186C42.6807 11.9126 40.6835 13.7067 38.6863 15.5008C37.4288 16.649 36.0974 17.7972 34.8399 18.8736C32.029 21.3136 27.3689 19.663 26.7772 16.0749C26.4813 14.2808 27.147 12.8456 28.4785 11.6256C32.103 8.39626 35.7275 5.23869 39.2781 2.00936C39.6479 1.65055 40.0178 1.36349 40.3876 1.00468C41.0534 0.430577 41.867 0 42.8287 0C46.6011 0 50.3736 0 54.1461 0C55.0337 0 55.8474 0.430577 56.4391 1.07644C58.5843 3.15757 60.8034 5.23869 62.9485 7.39158C63.1704 7.60686 63.3923 7.67863 63.6882 7.67863C68.1264 7.67863 72.5646 7.67863 77.0768 7.67863C78.0384 7.67863 78.7781 8.25273 79 9.11388C79 9.25741 79.074 9.40094 79.074 9.54446C79.074 17.2231 79.074 24.9017 79.074 32.5803C79.074 33.585 78.1863 34.4462 77.2247 34.4462C73.3043 34.4462 69.3839 34.4462 65.4635 34.4462C65.2416 34.4462 65.0936 34.3744 65.0936 34.1591C64.6498 32.3651 63.6882 30.9298 62.2828 29.7816C56.5131 25.2605 50.7434 20.6677 44.8998 16.1466C44.6039 16.0031 44.456 15.8596 44.3081 15.7161Z" fill="white"/>
</svg>
