<svg width="137" height="53" viewBox="0 0 137 53" fill="none" xmlns="http://www.w3.org/2000/svg">
<path fill-rule="evenodd" clip-rule="evenodd" d="M31.4489 2.71408C35.0806 3.35491 38.4419 4.71195 41.3395 6.70981C41.0304 6.89829 40.76 7.12446 40.4895 7.35064C39.6782 8.14224 39.1759 9.23542 39.1759 10.404C39.1759 11.6102 39.6782 12.7034 40.4895 13.4573C41.3009 14.2489 42.4213 14.739 43.619 14.739C44.8553 14.739 45.9757 14.2489 46.7484 13.4573C47.0188 13.1935 47.212 12.9296 47.4052 12.628C49.4142 15.4552 50.8437 18.697 51.5005 22.2404C51.1528 22.165 50.7664 22.0896 50.3801 22.0896C49.1438 22.0896 48.0234 22.5797 47.2507 23.3713C46.4393 24.1629 45.9371 25.256 45.9371 26.4246C45.9371 27.5932 46.4393 28.724 47.2507 29.4779C48.062 30.2696 49.1824 30.7596 50.3801 30.7596C50.7664 30.7596 51.1528 30.6842 51.5005 30.6088C50.8437 34.1522 49.4529 37.394 47.4052 40.2212C47.212 39.8819 46.9802 39.5804 46.7098 39.3542C45.8984 38.5626 44.778 38.0725 43.5803 38.0725C42.3826 38.0725 41.2236 38.5626 40.4509 39.3542C39.6395 40.1458 39.1373 41.239 39.1373 42.4075C39.1373 43.6138 39.6395 44.707 40.4509 45.4609C40.7213 45.7247 41.0304 45.9886 41.3781 46.1394C38.5191 48.0996 35.1965 49.4943 31.6034 50.1351C31.6807 49.7959 31.758 49.4189 31.758 49.042C31.758 47.8357 31.2557 46.7425 30.4444 45.9886C29.6331 45.197 28.5126 44.707 27.315 44.707C26.0786 44.707 24.9582 45.197 24.1855 45.9886C23.3742 46.7802 22.8719 47.8734 22.8719 49.042C22.8719 49.4566 22.9492 49.7959 23.0265 50.1728C19.3561 49.532 15.9562 48.1373 12.9813 46.1394C13.2904 45.9509 13.5995 45.7247 13.8699 45.4986C14.6813 44.707 15.1835 43.6138 15.1835 42.4452C15.1835 41.2767 14.6813 40.1458 13.8699 39.3919C13.0586 38.6003 11.9382 38.1102 10.7405 38.1102C9.50418 38.1102 8.38376 38.6003 7.61106 39.3919C7.34062 39.6558 7.10881 39.9196 6.95427 40.2589C4.94524 37.4317 3.55438 34.1899 2.89758 30.6842C3.2453 30.7596 3.63165 30.835 4.018 30.835C5.25432 30.835 6.37474 30.3449 7.14744 29.5533C7.95878 28.7617 8.46103 27.6686 8.46103 26.5C8.46103 25.2937 7.95878 24.2006 7.14744 23.4467C6.33611 22.655 5.21569 22.165 4.018 22.165C3.63165 22.165 3.2453 22.2404 2.89758 22.3158C3.55438 18.8101 4.98388 15.5306 6.9929 12.7411C7.18608 13.005 7.37925 13.2688 7.61106 13.495C8.4224 14.2866 9.54282 14.7767 10.7405 14.7767C11.9768 14.7767 13.0972 14.2866 13.8699 13.495C14.6813 12.7034 15.1835 11.6102 15.1835 10.4417C15.1835 9.27311 14.6813 8.14225 13.8699 7.38833C13.6381 7.16216 13.4063 6.97368 13.0972 6.7852C15.9562 4.86273 19.2402 3.46799 22.8333 2.86486C22.756 3.20412 22.6787 3.58108 22.6787 3.95804C22.6787 5.16429 23.181 6.25747 23.9923 7.01138C24.8037 7.80298 25.9241 8.29303 27.1218 8.29303C28.3581 8.29303 29.4785 7.80298 30.2512 7.01138C31.0626 6.21977 31.5648 5.1266 31.5648 3.95804C31.5648 3.46799 31.5262 3.05334 31.4489 2.71408Z" fill="#002C53"/>
<path fill-rule="evenodd" clip-rule="evenodd" d="M28.0104 33.6998L28.0877 33.6621V33.6998H28.1263V33.7752C28.5513 34.8684 28.9763 35.66 29.4013 36.1877C30.2899 37.1678 31.4876 37.6956 33.033 37.6956C34.3079 37.6956 35.3125 37.3563 35.9306 36.7155C36.4715 36.1877 36.742 35.4338 36.742 34.5291C36.742 33.5491 36.4329 32.7951 35.8533 32.2674C35.4284 31.9281 34.4238 31.4758 32.7239 30.8727C29.6331 29.7795 27.5082 28.724 26.3878 27.6309C24.9196 26.1984 24.1856 24.3136 24.1856 21.9011C24.1856 19.3001 25.0355 17.3023 26.6968 15.8698C28.2809 14.5505 30.4444 13.8343 33.0716 13.8343C35.9693 13.8343 38.1715 14.6259 39.7169 16.2091C40.5668 17.0761 41.3009 18.1693 41.8418 19.5263L37.0897 21.6373C36.5874 20.6572 36.2011 19.941 35.9306 19.6017C35.2738 18.8478 34.3079 18.4331 32.9944 18.4331C31.9512 18.4331 31.1399 18.697 30.6376 19.187C30.0967 19.7148 29.8649 20.3556 29.8649 21.2226C29.8649 22.3535 30.3672 23.2582 31.3717 23.8613C31.9512 24.2006 33.0716 24.6906 34.7329 25.256C37.8624 26.3492 39.9487 27.5555 41.0304 28.9125C42.035 30.1565 42.4986 31.8151 42.4986 33.8506C42.4986 36.2631 41.7645 38.2233 40.2964 39.7311C38.6351 41.4274 36.2397 42.2567 33.1489 42.2567C29.9035 42.2567 27.315 41.3897 25.4605 39.5804C25.0355 39.1657 24.6492 38.7134 24.3015 38.2233H12.4791V10.5171H18.3903V33.5868L28.0104 33.6998Z" fill="white"/>
<path fill-rule="evenodd" clip-rule="evenodd" d="M27.1218 0C29.2854 0 31.024 1.6963 31.024 3.80725C31.024 5.91821 29.2854 7.61451 27.1218 7.61451C24.9582 7.61451 23.2197 5.91821 23.2197 3.80725C23.2197 1.6963 24.9582 0 27.1218 0Z" fill="#002C53"/>
<path fill-rule="evenodd" clip-rule="evenodd" d="M10.6633 6.52133C12.8269 6.52133 14.5655 8.21763 14.5655 10.3286C14.5655 12.4395 12.8269 14.1358 10.6633 14.1358C8.49975 14.1358 6.76117 12.4395 6.76117 10.3286C6.76117 8.21763 8.49975 6.52133 10.6633 6.52133Z" fill="#002C53"/>
<path fill-rule="evenodd" clip-rule="evenodd" d="M3.90214 22.6927C6.06571 22.6927 7.80429 24.3891 7.80429 26.5C7.80429 28.611 6.06571 30.3073 3.90214 30.3073C1.73858 30.3073 0 28.611 0 26.5C0 24.3891 1.73858 22.6927 3.90214 22.6927Z" fill="#002C53"/>
<path fill-rule="evenodd" clip-rule="evenodd" d="M43.6576 6.59674C45.8212 6.59674 47.5598 8.29304 47.5598 10.404C47.5598 12.5149 45.8212 14.2113 43.6576 14.2113C41.4941 14.2113 39.7555 12.5149 39.7555 10.404C39.7555 8.33074 41.5327 6.59674 43.6576 6.59674Z" fill="#002C53"/>
<path fill-rule="evenodd" clip-rule="evenodd" d="M50.4574 22.6927C52.621 22.6927 54.3596 24.3891 54.3596 26.5C54.3596 28.611 52.621 30.3073 50.4574 30.3073C48.2939 30.3073 46.5553 28.611 46.5553 26.5C46.5553 24.4267 48.2939 22.6927 50.4574 22.6927Z" fill="#002C53"/>
<path fill-rule="evenodd" clip-rule="evenodd" d="M43.619 38.7134C45.7826 38.7134 47.5211 40.4097 47.5211 42.5206C47.5211 44.6316 45.7826 46.3279 43.619 46.3279C41.4554 46.3279 39.7169 44.6316 39.7169 42.5206C39.7555 40.4097 41.4941 38.7134 43.619 38.7134Z" fill="#002C53"/>
<path fill-rule="evenodd" clip-rule="evenodd" d="M27.2764 45.3855C29.44 45.3855 31.1786 47.0818 31.1786 49.1927C31.1786 51.3037 29.44 53 27.2764 53C25.1128 53 23.3743 51.3037 23.3743 49.1927C23.3743 47.1195 25.1515 45.3855 27.2764 45.3855Z" fill="#002C53"/>
<path fill-rule="evenodd" clip-rule="evenodd" d="M10.6633 38.7511C12.8269 38.7511 14.5655 40.4474 14.5655 42.5583C14.5655 44.6693 12.8269 46.3656 10.6633 46.3656C8.49975 46.3656 6.76117 44.6693 6.76117 42.5583C6.76117 40.4474 8.53838 38.7511 10.6633 38.7511Z" fill="#002C53"/>
<path d="M113.254 30.8727C115.417 31.4004 115.61 33.0213 115.842 34.6046C115.997 35.5846 116.074 36.6024 116.229 37.5825C116.306 38.0726 116.538 38.5626 116.692 39.0903C115.533 39.0903 114.374 39.128 113.176 39.0526C112.983 39.0526 112.713 38.7888 112.674 38.5626C112.442 37.5825 112.288 36.6024 112.133 35.6223C112.017 34.9438 112.017 34.2653 111.901 33.5868C111.708 32.6067 111.245 32.2297 110.24 32.1543C109.467 32.1167 108.656 32.1543 107.767 32.1543C107.767 33.3229 107.767 34.4538 107.767 35.6223C107.767 36.7532 107.767 37.8841 107.767 39.0149C106.492 39.0149 105.256 39.0149 104.02 39.0149C104.02 33.2098 104.02 27.4047 104.02 21.6373C104.058 21.5996 104.097 21.5619 104.136 21.5619C106.647 21.5996 109.158 21.4488 111.631 21.7127C115.147 22.0519 116.383 24.3891 116.035 27.5555C115.881 29.1764 114.954 30.2319 113.254 30.8727ZM107.845 29.5533C108.888 29.478 109.854 29.478 110.82 29.3649C111.785 29.2141 112.288 28.5733 112.404 27.6309C112.52 26.5754 112.635 25.5199 111.631 24.766C111.554 24.6906 111.438 24.6529 111.361 24.6152C110.24 24.2006 109.042 24.3137 107.883 24.3514C107.845 26.0854 107.845 27.744 107.845 29.5533Z" fill="#838387"/>
<path d="M75.5844 38.9772C75.5844 33.2098 75.5844 27.4424 75.5844 21.675C75.6616 21.6373 75.6616 21.5996 75.7003 21.5996C78.2888 21.675 80.8774 21.5619 83.4273 21.8634C85.8613 22.165 87.4067 23.7859 88.1408 26.01C89.068 28.8748 89.0294 31.7774 88.1408 34.6423C87.2908 37.2432 85.1272 38.8642 82.3069 38.9772C80.1047 39.0526 77.9025 38.9772 75.5844 38.9772ZM79.3706 36.1878C79.9501 36.1878 80.491 36.1878 81.0319 36.1878C83.0409 36.1501 84.0841 35.3585 84.5477 33.436C85.0113 31.4004 85.05 29.3649 84.625 27.367C84.3932 26.2738 83.9295 25.2937 82.8091 24.8037C81.7273 24.3137 80.5683 24.4267 79.4092 24.4644C79.3706 28.3848 79.3706 32.2297 79.3706 36.1878Z" fill="#838387"/>
<path d="M136.241 24.9168C135.237 25.3691 134.271 25.7838 133.305 26.1984C133.073 25.8592 132.919 25.5576 132.687 25.256C131.953 24.276 130.833 23.9367 129.674 24.389C128.437 24.8414 128.167 26.6131 129.287 27.4424C129.828 27.857 130.523 28.0832 131.142 28.3848C132.069 28.7994 133.035 29.101 133.923 29.5533C136.164 30.6842 137.014 32.4936 136.589 35.1323C136.28 37.2432 134.696 38.9019 132.378 39.2034C131.219 39.3542 130.021 39.3542 128.862 39.1657C126.467 38.7888 125.037 37.2432 124.226 35.0192C125.308 34.6423 126.351 34.2653 127.433 33.8883C127.587 34.1899 127.703 34.4915 127.858 34.7553C128.669 36.5647 130.601 36.6401 131.914 36.1878C132.61 35.9239 132.957 35.3585 133.035 34.6799C133.112 33.8883 132.88 33.2098 132.185 32.8329C131.721 32.569 131.219 32.4182 130.755 32.192C129.751 31.7774 128.708 31.4004 127.742 30.9104C125.462 29.7418 124.574 27.6686 125.153 25.0676C125.617 22.9566 127.278 21.5619 129.751 21.3734C130.678 21.298 131.644 21.3734 132.533 21.5619C134.426 21.9011 135.507 23.1828 136.241 24.9168Z" fill="#838387"/>
<path d="M91.0384 21.5996C94.5928 21.5996 98.07 21.5996 101.624 21.5996C101.624 22.5043 101.624 23.409 101.624 24.3891C99.3836 24.3891 97.1041 24.3891 94.8246 24.3891C94.8246 25.8969 94.8246 27.2916 94.8246 28.7617C96.5632 28.7617 98.2632 28.7617 100.002 28.7617C100.002 29.7041 100.002 30.6088 100.002 31.5512C98.2632 31.5512 96.5632 31.5512 94.8246 31.5512C94.8246 33.1344 94.8246 34.6423 94.8246 36.2255C97.22 36.2255 99.5768 36.2255 101.972 36.2255C101.972 37.2056 101.972 38.1102 101.972 39.0526C98.3018 39.0526 94.7087 39.0526 91.0384 39.0526C91.0384 33.2475 91.0384 27.4424 91.0384 21.5996Z" fill="#838387"/>
<path d="M60.8644 36.1501C62.9894 36.1501 64.9597 36.1501 67.0074 36.1501C67.0074 37.1302 67.0074 38.0726 67.0074 39.0526C63.7234 39.0526 60.4394 39.0526 57.1555 39.0526C57.1555 33.2475 57.1555 27.4424 57.1555 21.5996C58.3918 21.5996 59.5895 21.5996 60.8644 21.5996C60.8644 26.4246 60.8644 31.2497 60.8644 36.1501Z" fill="#838387"/>
<path d="M72.6482 39.0526C71.4118 39.0526 70.2141 39.0526 68.9391 39.0526C68.9391 33.2475 68.9391 27.4424 68.9391 21.5996C70.1755 21.5996 71.3732 21.5996 72.6482 21.5996C72.6482 27.4047 72.6482 33.2098 72.6482 39.0526Z" fill="#838387"/>
<path d="M118.16 29.8926C119.822 29.8926 121.444 29.8926 123.106 29.8926C123.106 30.835 123.106 31.7397 123.106 32.6444C121.444 32.6444 119.822 32.6444 118.16 32.6444C118.16 31.7397 118.16 30.835 118.16 29.8926Z" fill="#838387"/>
</svg>
