<svg width="50" height="50" viewBox="0 0 50 50" fill="none" xmlns="http://www.w3.org/2000/svg">
<g filter="url(#filter0_d)">
<circle cx="24.9728" cy="20.9728" r="20.9728" fill="#F4B615"/>
</g>
<g clip-path="url(#clip0)">
<path d="M38.2257 13.9717C38.2257 14.3377 38.3191 14.5208 38.3191 14.7953C38.3191 19.0051 38.3191 23.1234 38.3191 27.3332C38.3191 28.2484 37.6658 28.9806 36.6391 29.0721C36.4525 29.0721 36.3591 29.0721 36.1725 29.0721C28.706 29.0721 21.1462 29.0721 13.6797 29.0721C13.3064 29.0721 13.0264 29.0721 12.6531 28.889C11.9998 28.6145 11.6265 28.0654 11.6265 27.2417C11.6265 23.1234 11.6265 19.0051 11.6265 14.7953C11.6265 14.6123 11.6265 14.4293 11.7198 14.1547C12.1864 14.5208 12.6531 14.8869 13.0264 15.2529C16.6663 18.273 20.3062 21.3846 23.8528 24.4047C24.5994 24.9538 24.9728 25.0453 25.7194 24.4047C29.7326 21.0185 33.7459 17.6324 37.7591 14.2462C37.8524 14.1547 38.0391 14.0632 38.2257 13.9717Z" fill="white"/>
<path d="M24.7861 22.9404C20.8662 19.6458 17.0396 16.4426 13.1198 13.148C13.3997 12.965 35.3325 12.8735 36.5458 13.0565C32.6259 16.3511 28.706 19.6458 24.7861 22.9404Z" fill="white"/>
</g>
<defs>
<filter id="filter0_d" x="0" y="0" width="49.9455" height="49.9455" filterUnits="userSpaceOnUse" color-interpolation-filters="sRGB">
<feFlood flood-opacity="0" result="BackgroundImageFix"/>
<feColorMatrix in="SourceAlpha" type="matrix" values="0 0 0 0 0 0 0 0 0 0 0 0 0 0 0 0 0 0 127 0"/>
<feOffset dy="4"/>
<feGaussianBlur stdDeviation="2"/>
<feColorMatrix type="matrix" values="0 0 0 0 0 0 0 0 0 0 0 0 0 0 0 0 0 0 0.25 0"/>
<feBlend mode="normal" in2="BackgroundImageFix" result="effect1_dropShadow"/>
<feBlend mode="normal" in="SourceGraphic" in2="effect1_dropShadow" result="shape"/>
</filter>
<clipPath id="clip0">
<rect width="26.6926" height="16.0156" fill="white" transform="translate(11.6265 12.965)"/>
</clipPath>
</defs>
</svg>
