<svg width="31" height="18" viewBox="0 0 31 18" fill="none" xmlns="http://www.w3.org/2000/svg">
<path d="M30.8916 1.13141C30.8916 1.54284 31 1.74855 31 2.05712C31 6.78855 31 11.4171 31 16.1486C31 17.1771 30.2413 18 29.0489 18.1028C28.8322 18.1028 28.7238 18.1028 28.507 18.1028C19.8357 18.1028 11.0559 18.1028 2.38462 18.1028C1.95105 18.1028 1.62587 18.1028 1.19231 17.8971C0.433566 17.5885 0 16.9714 0 16.0457C0 11.4171 0 6.78855 0 2.05712C0 1.85141 0 1.64569 0.108392 1.33712C0.65035 1.74855 1.19231 2.15998 1.62587 2.57141C5.85315 5.96569 10.0804 9.46284 14.1993 12.8571C15.0664 13.4743 15.5 13.5771 16.3671 12.8571C21.028 9.05141 25.6888 5.24569 30.3496 1.43998C30.458 1.33712 30.6748 1.23427 30.8916 1.13141Z" fill="white"/>
<path d="M15.2832 11.2114C10.7308 7.50857 6.2867 3.90857 1.73425 0.205712C2.05943 -2.72319e-06 27.5315 -0.10286 28.9405 0.102854C24.3881 3.80571 19.8357 7.50857 15.2832 11.2114Z" fill="white"/>
</svg>
