<svg width="50" height="50" viewBox="0 0 50 50" fill="none" xmlns="http://www.w3.org/2000/svg">
<g filter="url(#filter0_d)">
<circle cx="24.9728" cy="20.9728" r="20.9728" fill="#F4B615"/>
</g>
<g clip-path="url(#clip0)">
<path d="M18.2115 32.7938C18.2115 32.6782 18.2115 32.6782 18.2115 32.5627C18.2115 31.2916 18.2115 30.1361 18.2115 28.865C18.2115 28.7494 18.2115 28.6339 18.0954 28.6339C16.5856 27.4784 15.4242 25.9762 14.7273 24.2429C14.1466 22.7407 13.9144 21.2385 14.0305 19.6208C14.3789 16.6164 15.7726 14.1898 18.0954 12.341C19.7213 11.0699 21.4634 10.3766 23.5539 10.03C26.3412 9.56775 28.8963 10.03 31.3352 11.4166C33.5418 12.5721 35.1678 14.3054 36.0969 16.6164C36.7937 18.2342 37.026 19.9675 36.7937 21.7007C36.4453 23.8962 35.5162 25.7451 34.1225 27.3628C32.3805 29.2117 30.29 30.2516 27.9672 30.7138C26.9219 30.9449 25.8767 30.9449 24.8314 30.9449C24.0185 30.9449 23.2055 30.8294 22.3925 30.5983C22.2764 30.5983 22.1602 30.5983 22.0441 30.5983C20.8827 31.2916 19.6052 31.8694 18.4438 32.5627C18.3276 32.6782 18.2115 32.6782 18.2115 32.7938ZM17.9792 24.1274C18.0954 24.1274 18.0954 24.1274 18.0954 24.1274C19.8374 23.2029 21.6957 22.163 23.4378 21.2385C23.5539 21.123 23.5539 21.2385 23.67 21.2385C24.483 22.0474 25.1798 22.8563 25.9928 23.7807C26.109 23.8962 26.3412 24.1273 26.4574 24.2429C28.5479 22.0474 30.6384 19.8519 32.6127 17.6564C30.7545 18.6964 28.8963 19.7364 27.0381 20.6608C25.9928 19.6208 25.0637 18.5808 24.0185 17.5409C22.0441 19.7364 19.9536 21.9319 17.9792 24.1274Z" fill="white"/>
</g>
<defs>
<filter id="filter0_d" x="0" y="0" width="49.9455" height="49.9455" filterUnits="userSpaceOnUse" color-interpolation-filters="sRGB">
<feFlood flood-opacity="0" result="BackgroundImageFix"/>
<feColorMatrix in="SourceAlpha" type="matrix" values="0 0 0 0 0 0 0 0 0 0 0 0 0 0 0 0 0 0 127 0"/>
<feOffset dy="4"/>
<feGaussianBlur stdDeviation="2"/>
<feColorMatrix type="matrix" values="0 0 0 0 0 0 0 0 0 0 0 0 0 0 0 0 0 0 0.25 0"/>
<feBlend mode="normal" in2="BackgroundImageFix" result="effect1_dropShadow"/>
<feBlend mode="normal" in="SourceGraphic" in2="effect1_dropShadow" result="shape"/>
</filter>
<clipPath id="clip0">
<rect width="22.8794" height="22.8794" fill="white" transform="translate(13.9144 9.91437)"/>
</clipPath>
</defs>
</svg>
