<svg width="25" height="25" viewBox="0 0 25 25" fill="none" xmlns="http://www.w3.org/2000/svg">
<g clip-path="url(#clip0)">
<path d="M4.69535 25C4.69535 24.8738 4.69535 24.8738 4.69535 24.7475C4.69535 23.3586 4.69535 22.096 4.69535 20.7071C4.69535 20.5808 4.69535 20.4546 4.56844 20.4546C2.9187 19.1919 1.64966 17.5505 0.88824 15.6566C0.253722 14.0152 -8.4885e-05 12.3738 0.126819 10.6061C0.507529 7.32325 2.03037 4.67174 4.56844 2.65154C6.34509 1.26265 8.24865 0.505071 10.5329 0.126284C13.5786 -0.378767 16.3705 0.126284 19.0354 1.64143C21.4466 2.90406 23.2233 4.798 24.2385 7.32325C24.9999 9.09093 25.2537 10.9849 24.9999 12.8788C24.6192 15.2778 23.604 17.298 22.0811 19.0657C20.1776 21.0859 17.8933 22.2222 15.3552 22.7273C14.2131 22.9798 13.071 22.9798 11.9288 22.9798C11.0405 22.9798 10.1522 22.8536 9.26387 22.601C9.13697 22.601 9.01007 22.601 8.88316 22.601C7.61413 23.3586 6.21819 23.9899 4.94915 24.7475C4.82225 24.8738 4.69535 24.8738 4.69535 25ZM4.44154 15.5303C4.56844 15.5303 4.56844 15.5303 4.56844 15.5303C6.472 14.5202 8.50245 13.3839 10.406 12.3738C10.5329 12.2475 10.5329 12.3738 10.6598 12.3738C11.5481 13.2576 12.3096 14.1414 13.1979 15.1515C13.3248 15.2778 13.5786 15.5303 13.7055 15.6566C15.9898 13.2576 18.274 10.8586 20.4314 8.45962C18.4009 9.59598 16.3705 10.7323 14.34 11.7424C13.1979 10.6061 12.1827 9.46972 11.0405 8.33335C8.88316 10.7323 6.5989 13.1313 4.44154 15.5303Z" fill="white"/>
</g>
<defs>
<clipPath id="clip0">
<rect width="25" height="25" fill="white"/>
</clipPath>
</defs>
</svg>
