<svg width="902" height="601" viewBox="0 0 902 601" fill="none" xmlns="http://www.w3.org/2000/svg">
<g id="napisz 1" clip-path="url(#clip0)">
<g id="Group 1">
<path id="Vector" d="M522.286 105.527C520.385 105.432 518.484 105.432 516.583 105.432V103.529C518.484 103.529 520.385 103.529 522.286 103.624V105.527Z" fill="#E6E6E6"/>
<path id="Vector_2" d="M349.489 264.056L347.588 263.96C347.683 262.057 347.779 260.154 347.969 258.251L349.87 258.441C349.775 260.249 349.584 262.152 349.489 264.056Z" fill="#E6E6E6"/>
<g id="polaczenie">
<mask id="path-3-outside-1" maskUnits="userSpaceOnUse" x="346.398" y="103.385" width="340" height="340" fill="black">
<rect fill="white" x="346.398" y="103.385" width="340" height="340"/>
<path d="M516.583 442.281C514.016 442.281 511.45 442.186 508.884 442.091L508.979 440.188C512.781 440.378 516.678 440.378 520.48 440.283V442.186C519.244 442.281 517.913 442.281 516.583 442.281ZM532.075 441.615L531.885 439.712C535.687 439.331 539.489 438.856 543.291 438.285L543.576 440.188C539.774 440.759 535.972 441.235 532.075 441.615ZM497.383 441.235C493.581 440.759 489.684 440.188 485.882 439.522L486.263 437.619C489.969 438.285 493.771 438.856 497.573 439.331L497.383 441.235ZM554.982 437.904L554.507 436.096C558.214 435.24 561.92 434.193 565.532 433.146L566.102 434.954C562.491 436.001 558.689 437.048 554.982 437.904ZM474.572 437.048C470.865 436.096 467.063 434.954 463.451 433.812L464.022 432.004C467.633 433.242 471.34 434.288 475.047 435.24L474.572 437.048ZM577.128 431.148L576.463 429.34C579.979 428.008 583.591 426.485 587.013 424.868L587.773 426.581C584.352 428.198 580.74 429.721 577.128 431.148ZM452.521 429.721C448.909 428.293 445.392 426.676 441.971 424.963L442.826 423.25C446.248 424.963 449.764 426.485 453.281 428.008L452.521 429.721ZM598.133 421.347L597.183 419.634C600.51 417.826 603.836 415.828 607.068 413.735L608.113 415.352C604.882 417.446 601.46 419.444 598.133 421.347ZM431.705 419.444C428.379 417.541 425.052 415.447 421.915 413.259L422.961 411.641C426.098 413.735 429.424 415.828 432.656 417.731L431.705 419.444ZM617.618 408.787L616.478 407.264C619.519 404.98 622.561 402.602 625.412 400.128L626.648 401.555C623.701 404.029 620.66 406.503 617.618 408.787ZM412.506 406.503C409.464 404.124 406.518 401.65 403.571 399.081L404.807 397.654C407.658 400.223 410.605 402.697 413.646 404.98L412.506 406.503ZM635.202 393.657L633.871 392.325C636.628 389.66 639.289 386.806 641.76 384.046L643.186 385.283C640.62 388.138 637.958 390.993 635.202 393.657ZM395.302 390.993C392.641 388.233 389.98 385.378 387.508 382.429L388.934 381.192C391.405 384.141 393.972 386.996 396.633 389.66L395.302 390.993ZM650.6 376.339L649.079 375.197C651.36 372.152 653.641 369.012 655.732 365.872L657.348 366.918C655.257 370.059 652.976 373.294 650.6 376.339ZM380.285 373.294C378.004 370.154 375.818 367.014 373.726 363.683L375.342 362.636C377.338 365.872 379.524 369.012 381.805 372.057L380.285 373.294ZM663.431 357.022L661.815 356.071C663.716 352.74 665.522 349.315 667.138 345.889L668.849 346.745C667.233 350.171 665.427 353.692 663.431 357.022ZM367.834 353.692C366.028 350.266 364.222 346.841 362.606 343.32L364.317 342.559C365.933 345.984 367.643 349.505 369.449 352.835L367.834 353.692ZM673.601 336.088L671.795 335.422C673.221 331.901 674.552 328.285 675.692 324.574L677.498 325.145C676.357 328.856 675.027 332.567 673.601 336.088ZM358.234 332.663C356.903 329.047 355.667 325.336 354.527 321.625L356.333 321.054C357.378 324.669 358.614 328.381 360.04 331.901L358.234 332.663ZM680.73 314.012L678.924 313.536C679.874 309.825 680.635 306.019 681.3 302.308L683.201 302.593C682.536 306.495 681.68 310.301 680.73 314.012ZM351.58 310.396C350.725 306.685 349.965 302.784 349.394 298.978L351.295 298.692C351.866 302.498 352.626 306.209 353.481 309.92L351.58 310.396ZM684.817 291.175L682.916 290.985C683.296 287.178 683.581 283.372 683.771 279.566L685.672 279.661C685.482 283.467 685.197 287.369 684.817 291.175ZM347.969 287.464C347.683 283.658 347.398 279.756 347.398 275.855H349.299C349.394 279.661 349.584 283.562 349.87 287.273L347.969 287.464ZM683.771 268.052C683.676 264.246 683.391 260.345 683.106 256.634L685.007 256.443C685.387 260.249 685.577 264.151 685.767 268.052H683.771ZM681.585 245.215C680.92 241.409 680.159 237.698 679.304 233.987L681.11 233.511C681.965 237.222 682.726 241.123 683.391 244.929L681.585 245.215ZM676.262 222.949C675.122 219.333 673.886 215.717 672.461 212.101L674.266 211.435C675.692 215.051 676.928 218.667 678.068 222.378L676.262 222.949ZM667.993 201.539C666.377 198.113 664.572 194.688 662.766 191.357L664.381 190.406C666.282 193.736 667.993 197.257 669.704 200.682L667.993 201.539ZM656.778 181.556C654.687 178.321 652.501 175.181 650.219 172.136L651.74 170.994C654.021 174.039 656.302 177.274 658.393 180.509L656.778 181.556ZM642.996 163.191C640.525 160.336 637.863 157.482 635.202 154.817L636.533 153.485C639.289 156.245 641.855 159.099 644.422 161.954L642.996 163.191ZM626.838 146.92C623.986 144.446 620.945 141.972 617.998 139.688L619.139 138.165C622.18 140.544 625.222 143.018 628.073 145.492L626.838 146.92ZM608.589 133.027C605.452 130.934 602.125 128.935 598.799 127.032L599.749 125.415C603.076 127.318 606.403 129.316 609.634 131.504L608.589 133.027ZM588.629 121.703C585.207 120.086 581.69 118.468 578.078 117.136L578.744 115.328C582.356 116.755 585.872 118.278 589.389 119.991L588.629 121.703ZM567.338 113.235C563.726 112.093 560.019 111.046 556.313 110.095L556.788 108.287C560.495 109.238 564.297 110.285 567.908 111.427L567.338 113.235ZM545.097 107.811C541.39 107.145 537.493 106.669 533.691 106.288L533.881 104.385C537.683 104.766 541.58 105.337 545.382 105.908L545.097 107.811Z"/>
</mask>
<path d="M516.583 442.281C514.016 442.281 511.45 442.186 508.884 442.091L508.979 440.188C512.781 440.378 516.678 440.378 520.48 440.283V442.186C519.244 442.281 517.913 442.281 516.583 442.281ZM532.075 441.615L531.885 439.712C535.687 439.331 539.489 438.856 543.291 438.285L543.576 440.188C539.774 440.759 535.972 441.235 532.075 441.615ZM497.383 441.235C493.581 440.759 489.684 440.188 485.882 439.522L486.263 437.619C489.969 438.285 493.771 438.856 497.573 439.331L497.383 441.235ZM554.982 437.904L554.507 436.096C558.214 435.24 561.92 434.193 565.532 433.146L566.102 434.954C562.491 436.001 558.689 437.048 554.982 437.904ZM474.572 437.048C470.865 436.096 467.063 434.954 463.451 433.812L464.022 432.004C467.633 433.242 471.34 434.288 475.047 435.24L474.572 437.048ZM577.128 431.148L576.463 429.34C579.979 428.008 583.591 426.485 587.013 424.868L587.773 426.581C584.352 428.198 580.74 429.721 577.128 431.148ZM452.521 429.721C448.909 428.293 445.392 426.676 441.971 424.963L442.826 423.25C446.248 424.963 449.764 426.485 453.281 428.008L452.521 429.721ZM598.133 421.347L597.183 419.634C600.51 417.826 603.836 415.828 607.068 413.735L608.113 415.352C604.882 417.446 601.46 419.444 598.133 421.347ZM431.705 419.444C428.379 417.541 425.052 415.447 421.915 413.259L422.961 411.641C426.098 413.735 429.424 415.828 432.656 417.731L431.705 419.444ZM617.618 408.787L616.478 407.264C619.519 404.98 622.561 402.602 625.412 400.128L626.648 401.555C623.701 404.029 620.66 406.503 617.618 408.787ZM412.506 406.503C409.464 404.124 406.518 401.65 403.571 399.081L404.807 397.654C407.658 400.223 410.605 402.697 413.646 404.98L412.506 406.503ZM635.202 393.657L633.871 392.325C636.628 389.66 639.289 386.806 641.76 384.046L643.186 385.283C640.62 388.138 637.958 390.993 635.202 393.657ZM395.302 390.993C392.641 388.233 389.98 385.378 387.508 382.429L388.934 381.192C391.405 384.141 393.972 386.996 396.633 389.66L395.302 390.993ZM650.6 376.339L649.079 375.197C651.36 372.152 653.641 369.012 655.732 365.872L657.348 366.918C655.257 370.059 652.976 373.294 650.6 376.339ZM380.285 373.294C378.004 370.154 375.818 367.014 373.726 363.683L375.342 362.636C377.338 365.872 379.524 369.012 381.805 372.057L380.285 373.294ZM663.431 357.022L661.815 356.071C663.716 352.74 665.522 349.315 667.138 345.889L668.849 346.745C667.233 350.171 665.427 353.692 663.431 357.022ZM367.834 353.692C366.028 350.266 364.222 346.841 362.606 343.32L364.317 342.559C365.933 345.984 367.643 349.505 369.449 352.835L367.834 353.692ZM673.601 336.088L671.795 335.422C673.221 331.901 674.552 328.285 675.692 324.574L677.498 325.145C676.357 328.856 675.027 332.567 673.601 336.088ZM358.234 332.663C356.903 329.047 355.667 325.336 354.527 321.625L356.333 321.054C357.378 324.669 358.614 328.381 360.04 331.901L358.234 332.663ZM680.73 314.012L678.924 313.536C679.874 309.825 680.635 306.019 681.3 302.308L683.201 302.593C682.536 306.495 681.68 310.301 680.73 314.012ZM351.58 310.396C350.725 306.685 349.965 302.784 349.394 298.978L351.295 298.692C351.866 302.498 352.626 306.209 353.481 309.92L351.58 310.396ZM684.817 291.175L682.916 290.985C683.296 287.178 683.581 283.372 683.771 279.566L685.672 279.661C685.482 283.467 685.197 287.369 684.817 291.175ZM347.969 287.464C347.683 283.658 347.398 279.756 347.398 275.855H349.299C349.394 279.661 349.584 283.562 349.87 287.273L347.969 287.464ZM683.771 268.052C683.676 264.246 683.391 260.345 683.106 256.634L685.007 256.443C685.387 260.249 685.577 264.151 685.767 268.052H683.771ZM681.585 245.215C680.92 241.409 680.159 237.698 679.304 233.987L681.11 233.511C681.965 237.222 682.726 241.123 683.391 244.929L681.585 245.215ZM676.262 222.949C675.122 219.333 673.886 215.717 672.461 212.101L674.266 211.435C675.692 215.051 676.928 218.667 678.068 222.378L676.262 222.949ZM667.993 201.539C666.377 198.113 664.572 194.688 662.766 191.357L664.381 190.406C666.282 193.736 667.993 197.257 669.704 200.682L667.993 201.539ZM656.778 181.556C654.687 178.321 652.501 175.181 650.219 172.136L651.74 170.994C654.021 174.039 656.302 177.274 658.393 180.509L656.778 181.556ZM642.996 163.191C640.525 160.336 637.863 157.482 635.202 154.817L636.533 153.485C639.289 156.245 641.855 159.099 644.422 161.954L642.996 163.191ZM626.838 146.92C623.986 144.446 620.945 141.972 617.998 139.688L619.139 138.165C622.18 140.544 625.222 143.018 628.073 145.492L626.838 146.92ZM608.589 133.027C605.452 130.934 602.125 128.935 598.799 127.032L599.749 125.415C603.076 127.318 606.403 129.316 609.634 131.504L608.589 133.027ZM588.629 121.703C585.207 120.086 581.69 118.468 578.078 117.136L578.744 115.328C582.356 116.755 585.872 118.278 589.389 119.991L588.629 121.703ZM567.338 113.235C563.726 112.093 560.019 111.046 556.313 110.095L556.788 108.287C560.495 109.238 564.297 110.285 567.908 111.427L567.338 113.235ZM545.097 107.811C541.39 107.145 537.493 106.669 533.691 106.288L533.881 104.385C537.683 104.766 541.58 105.337 545.382 105.908L545.097 107.811Z" fill="black"/>
<path d="M516.583 442.281C514.016 442.281 511.45 442.186 508.884 442.091L508.979 440.188C512.781 440.378 516.678 440.378 520.48 440.283V442.186C519.244 442.281 517.913 442.281 516.583 442.281ZM532.075 441.615L531.885 439.712C535.687 439.331 539.489 438.856 543.291 438.285L543.576 440.188C539.774 440.759 535.972 441.235 532.075 441.615ZM497.383 441.235C493.581 440.759 489.684 440.188 485.882 439.522L486.263 437.619C489.969 438.285 493.771 438.856 497.573 439.331L497.383 441.235ZM554.982 437.904L554.507 436.096C558.214 435.24 561.92 434.193 565.532 433.146L566.102 434.954C562.491 436.001 558.689 437.048 554.982 437.904ZM474.572 437.048C470.865 436.096 467.063 434.954 463.451 433.812L464.022 432.004C467.633 433.242 471.34 434.288 475.047 435.24L474.572 437.048ZM577.128 431.148L576.463 429.34C579.979 428.008 583.591 426.485 587.013 424.868L587.773 426.581C584.352 428.198 580.74 429.721 577.128 431.148ZM452.521 429.721C448.909 428.293 445.392 426.676 441.971 424.963L442.826 423.25C446.248 424.963 449.764 426.485 453.281 428.008L452.521 429.721ZM598.133 421.347L597.183 419.634C600.51 417.826 603.836 415.828 607.068 413.735L608.113 415.352C604.882 417.446 601.46 419.444 598.133 421.347ZM431.705 419.444C428.379 417.541 425.052 415.447 421.915 413.259L422.961 411.641C426.098 413.735 429.424 415.828 432.656 417.731L431.705 419.444ZM617.618 408.787L616.478 407.264C619.519 404.98 622.561 402.602 625.412 400.128L626.648 401.555C623.701 404.029 620.66 406.503 617.618 408.787ZM412.506 406.503C409.464 404.124 406.518 401.65 403.571 399.081L404.807 397.654C407.658 400.223 410.605 402.697 413.646 404.98L412.506 406.503ZM635.202 393.657L633.871 392.325C636.628 389.66 639.289 386.806 641.76 384.046L643.186 385.283C640.62 388.138 637.958 390.993 635.202 393.657ZM395.302 390.993C392.641 388.233 389.98 385.378 387.508 382.429L388.934 381.192C391.405 384.141 393.972 386.996 396.633 389.66L395.302 390.993ZM650.6 376.339L649.079 375.197C651.36 372.152 653.641 369.012 655.732 365.872L657.348 366.918C655.257 370.059 652.976 373.294 650.6 376.339ZM380.285 373.294C378.004 370.154 375.818 367.014 373.726 363.683L375.342 362.636C377.338 365.872 379.524 369.012 381.805 372.057L380.285 373.294ZM663.431 357.022L661.815 356.071C663.716 352.74 665.522 349.315 667.138 345.889L668.849 346.745C667.233 350.171 665.427 353.692 663.431 357.022ZM367.834 353.692C366.028 350.266 364.222 346.841 362.606 343.32L364.317 342.559C365.933 345.984 367.643 349.505 369.449 352.835L367.834 353.692ZM673.601 336.088L671.795 335.422C673.221 331.901 674.552 328.285 675.692 324.574L677.498 325.145C676.357 328.856 675.027 332.567 673.601 336.088ZM358.234 332.663C356.903 329.047 355.667 325.336 354.527 321.625L356.333 321.054C357.378 324.669 358.614 328.381 360.04 331.901L358.234 332.663ZM680.73 314.012L678.924 313.536C679.874 309.825 680.635 306.019 681.3 302.308L683.201 302.593C682.536 306.495 681.68 310.301 680.73 314.012ZM351.58 310.396C350.725 306.685 349.965 302.784 349.394 298.978L351.295 298.692C351.866 302.498 352.626 306.209 353.481 309.92L351.58 310.396ZM684.817 291.175L682.916 290.985C683.296 287.178 683.581 283.372 683.771 279.566L685.672 279.661C685.482 283.467 685.197 287.369 684.817 291.175ZM347.969 287.464C347.683 283.658 347.398 279.756 347.398 275.855H349.299C349.394 279.661 349.584 283.562 349.87 287.273L347.969 287.464ZM683.771 268.052C683.676 264.246 683.391 260.345 683.106 256.634L685.007 256.443C685.387 260.249 685.577 264.151 685.767 268.052H683.771ZM681.585 245.215C680.92 241.409 680.159 237.698 679.304 233.987L681.11 233.511C681.965 237.222 682.726 241.123 683.391 244.929L681.585 245.215ZM676.262 222.949C675.122 219.333 673.886 215.717 672.461 212.101L674.266 211.435C675.692 215.051 676.928 218.667 678.068 222.378L676.262 222.949ZM667.993 201.539C666.377 198.113 664.572 194.688 662.766 191.357L664.381 190.406C666.282 193.736 667.993 197.257 669.704 200.682L667.993 201.539ZM656.778 181.556C654.687 178.321 652.501 175.181 650.219 172.136L651.74 170.994C654.021 174.039 656.302 177.274 658.393 180.509L656.778 181.556ZM642.996 163.191C640.525 160.336 637.863 157.482 635.202 154.817L636.533 153.485C639.289 156.245 641.855 159.099 644.422 161.954L642.996 163.191ZM626.838 146.92C623.986 144.446 620.945 141.972 617.998 139.688L619.139 138.165C622.18 140.544 625.222 143.018 628.073 145.492L626.838 146.92ZM608.589 133.027C605.452 130.934 602.125 128.935 598.799 127.032L599.749 125.415C603.076 127.318 606.403 129.316 609.634 131.504L608.589 133.027ZM588.629 121.703C585.207 120.086 581.69 118.468 578.078 117.136L578.744 115.328C582.356 116.755 585.872 118.278 589.389 119.991L588.629 121.703ZM567.338 113.235C563.726 112.093 560.019 111.046 556.313 110.095L556.788 108.287C560.495 109.238 564.297 110.285 567.908 111.427L567.338 113.235ZM545.097 107.811C541.39 107.145 537.493 106.669 533.691 106.288L533.881 104.385C537.683 104.766 541.58 105.337 545.382 105.908L545.097 107.811Z" stroke="black" mask="url(#path-3-outside-1)"/>
</g>
<path id="Vector_3" d="M661.53 599.097H181.541V384.998L421.535 492.999L661.53 384.998V599.097Z" fill="#0C2A52"/>
<path id="Vector_4" d="M181.541 384.998H661.53L422.011 508.699L181.541 384.998Z" fill="#F4B615"/>
<path id="Vector_5" d="M422.011 528.682C433.034 528.682 441.97 519.736 441.97 508.7C441.97 497.663 433.034 488.717 422.011 488.717C410.987 488.717 402.051 497.663 402.051 508.7C402.051 519.736 410.987 528.682 422.011 528.682Z" fill="#E6E6E6"/>
<path id="Vector_6" d="M62.8263 598.621C62.6362 598.241 57.5037 589.677 55.6978 571.787C54.082 555.421 55.1275 527.826 69.3846 489.288C96.4731 416.304 63.1115 357.498 62.8263 356.927L64.4421 355.975C64.5372 356.166 73.0915 371.105 78.224 394.989C84.9724 426.676 82.5012 459.599 71.1905 489.954C44.102 562.748 64.2521 597.289 64.4421 597.574L62.8263 598.621Z" fill="#0C2A52"/>
<path id="Vector_7" d="M52.2761 352.645C59.1002 352.645 64.6323 347.107 64.6323 340.275C64.6323 333.443 59.1002 327.905 52.2761 327.905C45.452 327.905 39.9199 333.443 39.9199 340.275C39.9199 347.107 45.452 352.645 52.2761 352.645Z" fill="#F4B615"/>
<path id="Vector_8" d="M91.2455 398.32C98.0696 398.32 103.602 392.781 103.602 385.949C103.602 379.117 98.0696 373.579 91.2455 373.579C84.4214 373.579 78.8894 379.117 78.8894 385.949C78.8894 392.781 84.4214 398.32 91.2455 398.32Z" fill="#F4B615"/>
<path id="Vector_9" d="M64.6322 428.769C71.4564 428.769 76.9884 423.231 76.9884 416.399C76.9884 409.567 71.4564 404.029 64.6322 404.029C57.8081 404.029 52.2761 409.567 52.2761 416.399C52.2761 423.231 57.8081 428.769 64.6322 428.769Z" fill="#F4B615"/>
<path id="Vector_10" d="M96.9484 454.461C103.772 454.461 109.305 448.923 109.305 442.091C109.305 435.259 103.772 429.721 96.9484 429.721C90.1243 429.721 84.5922 435.259 84.5922 442.091C84.5922 448.923 90.1243 454.461 96.9484 454.461Z" fill="#F4B615"/>
<path id="Vector_11" d="M55.1275 494.426C61.9516 494.426 67.4837 488.888 67.4837 482.056C67.4837 475.224 61.9516 469.686 55.1275 469.686C48.3034 469.686 42.7713 475.224 42.7713 482.056C42.7713 488.888 48.3034 494.426 55.1275 494.426Z" fill="#F4B615"/>
<path id="Vector_12" d="M70.3351 599.097C70.3351 599.097 57.9789 568.647 95.0474 545.81L70.3351 599.097Z" fill="#0C2A52"/>
<path id="Vector_13" d="M55.1275 598.526C55.1275 598.526 49.5197 566.173 5.98799 566.459L55.1275 598.526Z" fill="#0C2A52"/>
<path id="Vector_14" d="M264.707 131.409C264.707 105.337 273.356 79.9303 289.419 59.3768C225.548 49.9565 166.143 94.2036 156.733 158.148C147.324 222.092 191.426 281.564 255.392 290.984C271.836 293.459 288.659 292.317 304.627 287.749C326.773 297.36 351.01 301.261 374.962 298.882L337.608 272.239C347.779 265.293 356.903 256.919 364.412 247.118C307.193 238.649 264.707 189.359 264.707 131.409Z" fill="#0C2A52"/>
<path id="Vector_15" d="M529.889 119.039C529.889 54.4288 477.518 1.99829 412.981 1.99829C376.958 1.99829 342.931 18.6504 320.785 47.0067C384.657 56.5222 428.759 115.994 419.254 179.938C416.308 199.921 408.229 218.857 395.777 234.843C412.316 237.317 429.139 236.175 445.202 231.608C467.348 241.218 491.585 245.12 515.537 242.741L478.184 216.097C510.595 194.402 529.889 157.958 529.889 119.039Z" fill="#F4B615"/>
<path id="Vector_16" d="M304.627 52.7159C264.897 103.719 273.927 177.274 324.872 217.049C340.84 229.514 359.659 237.602 379.619 240.552C419.349 189.644 410.32 116.089 359.374 76.3144C343.501 63.7539 324.682 55.6658 304.627 52.7159Z" fill="#E6E6E6"/>
<path id="Vector_17" d="M902 599.097H0V601H902V599.097Z" fill="#0C2A52"/>
<path id="Vector_18" d="M766.177 152.724L760.569 190.31L696.127 233.987C696.127 233.987 662.195 250.258 664.381 260.345C666.282 269.384 692.42 268.242 700.69 254.35L777.773 219.238L803.531 168.139L766.177 152.724Z" fill="#FFB8B8"/>
<path id="Vector_19" d="M766.557 531.537L769.409 571.502L796.973 569.599L792.22 531.537H766.557Z" fill="#FFB8B8"/>
<path id="Vector_20" d="M774.161 559.132C774.161 559.132 770.359 544.858 766.557 545.81L760.855 556.277C760.855 556.277 735.192 580.066 727.588 581.017C727.588 581.017 702.876 588.63 727.588 600.048H756.102C756.102 600.048 775.112 599.097 778.914 600.048C782.716 601 804.576 601 805.527 595.291C806.477 589.581 802.675 578.163 802.675 578.163C802.675 578.163 799.159 550.092 795.262 555.516C793.171 558.466 790.89 561.225 788.418 563.889L774.161 559.132Z" fill="#0C2A52"/>
<path id="Vector_21" d="M837.843 532.013L840.694 571.978L868.258 570.075L863.506 532.013H837.843Z" fill="#FFB8B8"/>
<path id="Vector_22" d="M845.447 559.608C845.447 559.608 841.645 545.334 837.843 546.286L832.14 556.753C832.14 556.753 806.477 580.542 798.874 581.493C798.874 581.493 774.161 589.106 798.874 600.524H827.388C827.388 600.524 846.397 598.621 850.199 599.573C854.001 600.524 875.862 600.524 876.812 594.815C877.763 589.106 873.961 578.639 873.961 578.639C873.961 578.639 870.444 550.568 866.547 555.992C864.456 558.941 862.175 561.701 859.704 564.365L845.447 559.608Z" fill="#0C2A52"/>
<path id="Vector_23" d="M729.489 286.512L724.737 293.173V306.495L755.152 419.729L760.855 444.47C760.855 444.47 760.855 539.625 766.557 539.625C772.26 539.625 797.923 542.479 797.923 536.77C797.923 531.061 796.022 401.65 796.022 401.65L821.685 450.179C821.685 450.179 833.091 535.819 836.893 536.77C840.694 537.722 867.308 536.77 869.209 531.061L863.506 476.822C863.506 476.822 864.456 415.923 848.298 402.601C848.298 402.601 845.447 386.425 842.595 379.764C839.744 373.103 834.992 369.297 837.843 364.539C840.694 359.782 834.041 307.446 834.041 307.446C834.041 307.446 835.942 291.27 832.14 286.512C828.338 281.754 729.489 286.512 729.489 286.512Z" fill="#0C2A52"/>
<path id="Vector_24" d="M790.319 70.51C806.592 70.51 819.784 57.3032 819.784 41.0119C819.784 24.7205 806.592 11.5138 790.319 11.5138C774.046 11.5138 760.855 24.7205 760.855 41.0119C760.855 57.3032 774.046 70.51 790.319 70.51Z" fill="#FFB8B8"/>
<path id="Vector_25" d="M808.854 58.6156L806.953 77.6466L814.556 84.3075L766.082 107.145C778.058 86.6864 781.575 68.1311 775.587 54.8094L808.854 58.6156Z" fill="#FFB8B8"/>
<path id="Vector_26" d="M775.587 87.1621C775.587 87.1621 767.983 102.387 777.488 98.5807L806.953 77.6466C806.953 77.6466 839.269 90.0168 850.674 104.29L841.17 205.155L833.566 276.521C833.566 276.521 838.318 285.085 837.368 286.036C836.417 286.988 835.467 285.085 836.417 287.94C837.368 290.794 840.219 287.94 837.368 290.794C834.516 293.649 831.665 290.794 834.516 293.649C837.368 296.503 834.516 297.455 834.516 297.455C834.516 297.455 830.714 274.618 797.448 291.746C764.181 308.874 749.924 313.631 725.212 292.697L753.726 184.22L756.007 143.304C756.768 129.601 759.239 116.089 763.231 103.053C765.417 96.0116 769.219 89.0652 775.587 85.259V87.1621Z" fill="#F4B615"/>
<path id="Vector_27" d="M826.437 170.423L840.694 205.63L807.428 276.045C807.428 276.045 799.824 284.609 804.576 295.076C807.048 300.69 809.899 306.114 813.131 311.253C813.131 311.253 821.685 307.446 821.685 291.27L870.159 221.807L866.357 164.714L826.437 170.423Z" fill="#FFB8B8"/>
<path id="Vector_28" d="M824.536 107.62C824.536 107.62 811.23 120.942 816.933 141.876C822.635 162.81 827.388 178.987 827.388 178.987C827.388 178.987 850.199 161.859 869.209 172.326C869.209 172.326 866.357 110.475 850.199 104.766C834.041 99.0565 824.536 107.62 824.536 107.62Z" fill="#F4B615"/>
<path id="Vector_29" d="M814.556 15.7005C814.556 15.7005 805.527 -3.80626 788.323 0.666031C771.12 5.13832 761.33 11.8943 760.569 18.6504C759.809 25.4064 760.95 35.588 760.95 35.588C760.95 35.588 762.851 21.6953 774.826 24.7403C786.802 27.7853 805.622 25.5015 805.622 25.5015L808.663 52.5256C808.663 52.5256 813.796 47.1018 817.503 50.0516C821.21 53.0014 826.532 21.6953 814.556 15.7005Z" fill="#2F2E41"/>
<path id="Vector_30" d="M665.522 227.897L683.106 223.805C684.817 223.424 686.623 224.281 687.383 225.898L705.347 263.199C706.107 264.722 705.442 266.625 703.921 267.291C703.731 267.386 703.636 267.386 703.446 267.481L685.577 272.524C683.581 273.095 681.49 272.049 680.73 270.241L669.229 243.597L668.849 243.788L666.663 238.744L667.043 238.554L663.811 231.132C663.336 229.895 663.811 228.563 665.047 227.992C665.237 227.992 665.332 227.897 665.522 227.897Z" fill="#3F3D56"/>
<path id="Vector_31" d="M680.92 225.232L683.011 224.756C684.246 224.471 685.482 225.042 685.957 226.184L703.541 263.294C703.921 264.151 703.541 265.102 702.781 265.483C702.686 265.483 702.59 265.578 702.59 265.578L684.912 270.907C683.866 271.192 682.821 270.716 682.345 269.67L665.712 231.037C665.332 230.085 665.712 229.038 666.663 228.563C666.758 228.563 666.853 228.468 666.948 228.468L668.849 227.992C669.229 227.897 669.609 228.087 669.799 228.468C669.989 228.753 670.274 228.943 670.655 228.848L679.874 226.755C680.54 226.564 681.015 225.898 680.92 225.232Z" fill="#F4B615"/>
</g>
</g>
<defs>
<clipPath id="clip0">
<rect width="902" height="601" fill="white"/>
</clipPath>
</defs>
</svg>
