<svg width="68" height="56" viewBox="0 0 68 56" fill="none" xmlns="http://www.w3.org/2000/svg">
<path d="M44.6219 26.3527C45.1329 26.0292 45.7078 25.641 46.2188 25.3175C46.2827 25.2528 46.3465 25.1234 46.4104 24.994C46.8575 23.7001 47.2408 22.4061 47.6879 21.1768C48.646 18.5889 50.3706 16.5832 52.734 15.2246C55.6083 13.6071 59.3131 14.5776 61.2293 17.4243C61.8042 18.2654 62.1235 19.2359 62.379 20.271C62.9539 22.9237 63.5927 25.5763 64.1675 28.2289C64.6785 30.5581 64.1037 32.5637 62.5707 34.3753C60.3351 36.9632 58.0356 39.5512 55.8 42.1391C55.6722 42.2685 55.6083 42.5273 55.5445 42.7214C55.3528 44.2095 55.2251 45.6975 55.0335 47.1856C54.8419 48.803 54.7141 50.4205 54.5225 52.038C54.3309 53.6554 53.0534 55.0141 51.5204 55.1435C49.8596 55.2729 48.3267 54.173 48.0073 52.4909C47.8795 51.9733 47.9434 51.4557 48.0073 50.9381C48.0712 49.8382 48.2628 48.803 48.3267 47.7032C48.4544 46.668 48.5822 45.6328 48.646 44.5329C48.7738 43.5625 48.8377 42.592 48.9654 41.5568C49.0932 40.0688 49.7319 38.7748 50.69 37.6749C52.0953 36.0575 53.5644 34.3753 54.9696 32.7578C55.0335 32.6284 55.0973 32.4343 55.0973 32.3049C54.5225 29.9758 53.9476 27.582 53.3727 25.2528C53.3727 25.1881 53.3727 25.1881 53.3089 24.994C53.245 25.1881 53.1811 25.2528 53.1172 25.3822C52.8617 26.0939 52.6701 26.8056 52.4146 27.5173C51.9036 28.9406 50.9455 30.0405 49.668 30.8169C48.0712 31.8521 46.4104 32.8872 44.8136 33.9224C44.1109 34.3753 43.4083 34.5694 42.6418 34.5694C37.1486 34.5694 31.7193 34.5694 26.2261 34.5694C25.3957 34.5694 24.6931 34.3753 23.9905 33.9224C22.3297 32.8225 20.669 31.7874 19.0083 30.6875C17.7308 29.8464 16.8365 28.6818 16.3255 27.1938C16.1339 26.5468 15.9423 25.9645 15.6868 25.3175C15.6229 25.1881 15.6229 25.1234 15.4952 24.994C15.4313 25.1234 15.4313 25.1881 15.3674 25.3175C14.7926 27.582 14.2816 29.8464 13.7067 32.1109C13.6428 32.3696 13.7067 32.499 13.8344 32.6931C15.3036 34.3753 16.8365 36.1222 18.3057 37.869C19.1999 38.9042 19.647 40.0688 19.7748 41.4274C19.9664 43.239 20.158 45.0505 20.3496 46.8621C20.5413 48.4149 20.7329 49.9676 20.7968 51.4557C20.9245 53.2025 19.647 54.5612 18.114 54.8847C16.1978 55.2729 14.2816 53.8495 14.1538 51.6498C14.0899 50.4205 13.8983 49.1912 13.7706 47.962C13.6428 46.9268 13.5789 45.8916 13.4512 44.8564C13.3873 44.0154 13.2596 43.239 13.1957 42.3979C13.1957 42.2038 13.068 42.0097 12.9402 41.8803C10.7046 39.2924 8.40511 36.7044 6.16951 34.1165C4.89202 32.6931 4.31715 30.9463 4.50877 29.07C4.57265 28.0996 4.89202 27.0644 5.08364 26.0939C5.59464 23.8295 6.04176 21.6297 6.61663 19.3653C7.31925 16.6479 9.10773 14.9658 11.8543 14.3835C13.7706 13.9953 15.4952 14.5129 17.0282 15.6775C19.0722 17.1655 20.5413 19.1065 21.3078 21.565C21.6271 22.6002 22.0104 23.6354 22.3297 24.7352C22.3936 24.994 22.5214 25.1234 22.713 25.2528C23.1601 25.5116 23.6711 25.8351 24.1821 26.1586C24.1821 25.9645 24.1821 25.8351 24.1821 25.7057C24.1821 22.4708 24.1821 19.2359 24.1821 16.0009C24.1821 14.9658 24.8847 14.1894 25.9067 14.1894C31.3999 14.1894 36.957 14.1894 42.4502 14.1894C43.4722 14.1894 44.1748 14.9011 44.1748 16.0009C44.1748 19.2359 44.1748 22.4708 44.1748 25.641C44.1748 25.7704 44.1748 25.8998 44.1748 26.0292C44.5581 26.288 44.5581 26.288 44.6219 26.3527Z" fill="white"/>
<path d="M5.85015 38.9689C6.16953 39.2924 6.42502 39.6159 6.68052 39.8746C7.76639 41.1039 8.85225 42.3332 9.93812 43.6272C10.0659 43.7566 10.1297 44.0153 10.1297 44.2094C10.1936 44.5976 10.2575 44.9858 10.2575 45.4387C10.2575 45.6328 10.2575 45.7622 10.1936 45.9563C9.29937 48.3501 8.34126 50.6793 7.38314 53.0731C6.80827 54.4965 5.40303 55.3376 3.93392 55.1435C2.40093 54.9494 1.25119 53.7848 0.995694 52.2967C0.931819 51.7145 0.995694 51.1322 1.18732 50.6146C2.7203 46.7974 4.18942 42.9802 5.7224 39.2277C5.7224 39.163 5.78628 39.0983 5.85015 38.9689Z" fill="white"/>
<path d="M63.2094 38.9689C63.5288 39.7453 63.7843 40.5216 64.1036 41.2333C65.3172 44.3388 66.5309 47.4444 67.7445 50.5499C68.5748 52.6202 67.2973 54.82 65.1256 55.1435C63.7204 55.3376 62.2513 54.4965 61.6764 53.0731C60.7183 50.6793 59.7602 48.3501 58.8659 45.9563C58.7382 45.6328 58.8659 45.1799 58.8659 44.7917C58.802 44.0153 59.2492 43.4978 59.7602 42.9802C60.7822 41.8156 61.8041 40.651 62.8261 39.4218C62.89 39.2924 63.0178 39.163 63.2094 38.9689Z" fill="white"/>
<path d="M19.3276 5.90799C19.3915 8.36653 17.4114 10.9545 14.3454 10.9545C11.3433 10.9545 9.29934 8.49593 9.36321 5.77859C9.42709 3.19065 11.4711 0.861511 14.3454 0.861511C17.4114 0.861511 19.3915 3.44945 19.3276 5.90799Z" fill="white"/>
<path d="M49.668 5.90799C49.6041 3.38475 51.5842 0.861511 54.6502 0.861511C57.6523 0.861511 59.6963 3.38475 59.6324 5.97269C59.5685 8.49593 57.5884 10.9545 54.6502 10.9545C51.6481 10.9545 49.6041 8.43123 49.668 5.90799Z" fill="white"/>
</svg>
