<svg width="63" height="63" viewBox="0 0 63 63" fill="none" xmlns="http://www.w3.org/2000/svg">
<g filter="url(#filter0_d)">
<circle cx="31.5" cy="27.5" r="27.5" fill="white"/>
</g>
<g clip-path="url(#clip0)">
<path d="M44.6786 43.0001C43.5211 43.0001 42.3133 42.8995 41.1558 42.7485C35.1169 41.893 29.8831 39.3264 25.5049 35.0488C21.4789 31.1738 18.9123 26.4936 17.6542 21.0082C17.4026 19.8508 17.2013 18.643 17.1006 17.4855C17.0503 16.63 17 15.7745 17 14.9189C17 14.1641 17.4026 13.6105 18.1575 13.4595C20.2208 13.0066 22.2841 12.5034 24.3977 12.0504C25.1526 11.8995 25.8068 12.2014 26.1088 12.906C27.0649 15.1202 28.0211 17.3848 28.9773 19.5991C29.2289 20.2534 29.0779 20.9076 28.5244 21.3102C27.3669 22.2663 26.2094 23.1722 25.0519 24.1284C24.8506 24.2793 24.8506 24.2793 24.9513 24.531C26.612 27.953 29.0276 30.7712 32.1477 33.0358C33.2045 33.7907 34.3117 34.4449 35.4692 34.9985C35.5698 35.0488 35.6705 35.0488 35.7208 34.9482C36.6769 33.7907 37.6331 32.5829 38.5893 31.4254C39.0422 30.8719 39.6964 30.7209 40.3506 30.9725C42.2127 31.7777 44.125 32.5829 45.987 33.3881C46.3393 33.5391 46.6916 33.69 47.0438 33.841C47.7484 34.143 48.1006 34.7972 47.8993 35.5521C47.4464 37.6154 46.9432 39.6787 46.4903 41.7923C46.3393 42.5472 45.6347 43.0001 45.0308 42.9498C44.9302 43.0001 44.7792 43.0001 44.6786 43.0001Z" fill="#002C53"/>
</g>
<defs>
<filter id="filter0_d" x="0" y="0" width="63" height="63" filterUnits="userSpaceOnUse" color-interpolation-filters="sRGB">
<feFlood flood-opacity="0" result="BackgroundImageFix"/>
<feColorMatrix in="SourceAlpha" type="matrix" values="0 0 0 0 0 0 0 0 0 0 0 0 0 0 0 0 0 0 127 0"/>
<feOffset dy="4"/>
<feGaussianBlur stdDeviation="2"/>
<feColorMatrix type="matrix" values="0 0 0 0 0 0 0 0 0 0 0 0 0 0 0 0 0 0 0.25 0"/>
<feBlend mode="normal" in2="BackgroundImageFix" result="effect1_dropShadow"/>
<feBlend mode="normal" in="SourceGraphic" in2="effect1_dropShadow" result="shape"/>
</filter>
<clipPath id="clip0">
<rect width="31" height="31" fill="white" transform="translate(17 12)"/>
</clipPath>
</defs>
</svg>
