<svg width="23" height="23" viewBox="0 0 23 23" fill="none" xmlns="http://www.w3.org/2000/svg">
<path d="M20.5652 23C19.7052 23 18.8078 22.9253 17.9478 22.8132C13.4609 22.1782 9.57217 20.2733 6.31913 17.0983C3.32783 14.2222 1.42087 10.7484 0.486087 6.67694C0.29913 5.81783 0.149565 4.92137 0.0747826 4.06226C0.0373913 3.42727 0 2.79228 0 2.15728C0 1.597 0.29913 1.18612 0.86 1.07406C2.39304 0.737888 3.92609 0.364363 5.49652 0.0281898C6.05739 -0.0838678 6.54348 0.140247 6.76783 0.663183C7.47826 2.30669 8.1887 3.98756 8.89913 5.63107C9.08609 6.11665 8.97391 6.60224 8.56261 6.90106C7.70261 7.61076 6.84261 8.2831 5.98261 8.9928C5.83304 9.10486 5.83304 9.10486 5.90783 9.29162C7.14174 11.8316 8.93652 13.9233 11.2548 15.6042C12.04 16.1645 12.8626 16.6501 13.7226 17.0609C13.7974 17.0983 13.8722 17.0983 13.9096 17.0236C14.62 16.1645 15.3304 15.268 16.0409 14.4089C16.3774 13.998 16.8635 13.886 17.3496 14.0727C18.733 14.6704 20.1539 15.268 21.5374 15.8657C21.7991 15.9777 22.0609 16.0898 22.3226 16.2018C22.8461 16.426 23.1078 16.9115 22.9583 17.4718C22.6217 19.0033 22.2478 20.5347 21.9113 22.1035C21.7991 22.6638 21.2757 23 20.827 22.9626C20.7522 23 20.64 23 20.5652 23Z" fill="white"/>
</svg>
