<svg width="59" height="42" viewBox="0 0 59 42" fill="none" xmlns="http://www.w3.org/2000/svg">
<path d="M32.0971 40.6782C31.148 40.6782 30.1989 40.6782 29.2498 40.6782C28.3007 40.6782 27.3516 40.6782 26.4025 40.6782C25.4534 40.6782 24.5043 40.6782 23.5551 40.6782C22.606 40.6782 21.7128 40.6782 20.7637 40.6782C19.8146 40.6782 18.8655 40.6782 17.9164 40.6782C17.2464 40.6224 16.5764 40.6782 15.9623 40.6224C15.6832 40.5666 15.404 40.5108 15.069 40.3992C15.0132 40.3992 14.9574 40.3434 14.9016 40.3434C13.2267 39.6179 12.2217 38.167 12.2217 36.3254C12.2217 35.8789 12.2217 35.4325 12.2217 34.986C12.2217 34.707 12.2217 34.4279 12.2217 34.2047C12.2217 33.535 12.2217 32.8096 12.3892 32.1399C12.5567 31.1912 12.8917 30.2983 13.2267 29.4054C13.7291 28.4567 14.3433 27.5638 15.069 26.7825C15.1249 26.7267 15.1807 26.6151 15.2924 26.5593C15.3482 26.5593 15.3482 26.5593 15.404 26.5035C16.1856 25.778 17.0789 25.1641 18.028 24.6619C18.4188 24.4944 18.7538 24.327 19.1446 24.2154C20.2612 23.8248 21.4336 23.6573 22.606 23.6573C22.9969 23.6573 23.3318 23.7132 23.6668 23.8806C24.5601 24.2712 25.4534 24.6061 26.4025 24.7735C27.3516 24.9967 28.3007 25.1083 29.2498 25.0525C30.1989 25.0525 31.148 24.9409 32.0971 24.7735C33.0462 24.5502 33.9953 24.2712 34.8886 23.8248C35.056 23.769 35.1677 23.7132 35.2794 23.6573C35.8935 23.6573 36.5076 23.6573 37.0659 23.7132C37.2892 23.7132 37.5125 23.769 37.68 23.769C38.685 23.9922 39.6341 24.2712 40.5273 24.7177C41.4206 25.1641 42.2581 25.7222 42.9839 26.4477C43.8771 27.2847 44.6029 28.2893 45.1612 29.3496C45.2729 29.5728 45.3287 29.7402 45.4403 29.9634C45.7195 30.6889 45.9428 31.4144 46.1103 32.1957C46.1103 32.3073 46.1103 32.4189 46.1661 32.5305C46.1661 32.5863 46.1661 32.6421 46.1661 32.6979V32.7538C46.1661 33.0886 46.222 33.4234 46.222 33.7583C46.222 34.2047 46.222 34.6512 46.222 35.0976C46.222 35.5441 46.222 35.9905 46.222 36.437C46.2778 38.6692 44.4912 40.7898 41.9231 40.7898C41.4764 40.7898 41.0298 40.7898 40.5832 40.7898C39.6341 40.7898 38.685 40.7898 37.7359 40.7898C36.7868 40.7898 35.8377 40.7898 34.8886 40.7898C33.9395 40.6782 33.0462 40.6782 32.0971 40.6782Z" fill="white" stroke="white" stroke-width="2" stroke-miterlimit="10" stroke-linecap="round" stroke-linejoin="round"/>
<path d="M27.9657 1.05581C28.4123 1.05581 28.8031 1 29.2497 1C29.6405 1 29.9755 1.05581 30.3663 1.05581C30.9805 1.11161 31.5387 1.27903 32.097 1.39064C33.102 1.66967 33.9952 2.17193 34.8885 2.72999C35.3352 3.06483 35.7818 3.39967 36.1726 3.79031C36.7309 4.40418 37.2892 5.01804 37.7358 5.74352C37.9033 6.02255 38.0708 6.35739 38.2383 6.63642C38.35 6.85965 38.4058 7.02707 38.5174 7.25029C38.7966 7.97577 38.9641 8.70125 39.1316 9.48254C39.2432 10.4312 39.2432 11.3799 39.1316 12.3287C38.9641 13.2774 38.6849 14.2261 38.2941 15.119C38.1266 15.4538 37.9592 15.7328 37.7917 16.0677C37.345 16.7373 36.8426 17.407 36.2843 17.9651C35.8376 18.3557 35.391 18.6906 34.9444 19.0812C34.0511 19.6393 33.1578 20.0857 32.1529 20.4205C31.5387 20.588 30.9246 20.6996 30.3663 20.7554C30.3105 20.7554 30.3105 20.7554 30.2547 20.7554H30.1988C29.9197 20.7554 29.5847 20.7554 29.3056 20.8112C28.9706 20.8112 28.6356 20.7554 28.2448 20.7554C27.6307 20.6438 27.0166 20.5322 26.4583 20.3647C25.4533 20.0299 24.5042 19.5835 23.6109 18.9696C23.1643 18.6347 22.7177 18.2999 22.3269 17.9093C21.7686 17.2954 21.2661 16.6815 20.8195 16.0119C20.652 15.677 20.4845 15.398 20.317 15.0632C20.2053 14.8399 20.1495 14.5609 20.0379 14.3377C19.7587 13.668 19.5912 12.9425 19.4796 12.217C19.3679 11.2683 19.3679 10.3754 19.4796 9.42673C19.647 8.47803 19.9262 7.52932 20.317 6.63642C20.4845 6.30159 20.7078 5.96675 20.8753 5.57611C21.3219 4.90643 21.8244 4.29256 22.3827 3.7345C22.7735 3.34386 23.2201 3.00902 23.6668 2.67419C24.56 2.11612 25.4533 1.66967 26.4583 1.33484C26.9607 1.27903 27.4632 1.16742 27.9657 1.05581Z" fill="white" stroke="white" stroke-width="2" stroke-miterlimit="10" stroke-linecap="round" stroke-linejoin="round"/>
<path d="M51.9166 20.8112C52.1958 20.8112 52.4749 20.867 52.754 20.867H52.8099C52.8657 20.867 52.8657 20.867 52.9215 20.867C53.5357 21.0344 54.1498 21.2019 54.7081 21.5367C55.6014 22.0948 56.3271 22.8202 56.8854 23.7131C57.1646 24.2712 57.3879 24.8851 57.4996 25.4989C57.4996 25.5547 57.4996 25.5547 57.4996 25.6105C57.4996 25.6664 57.4996 25.6664 57.4996 25.7222C57.5554 27.1173 57.5554 28.5125 57.4996 29.9076C57.3879 30.1867 57.2762 30.5215 57.1088 30.8563C56.7179 31.526 56.1038 31.9166 55.4339 32.1399C55.1547 32.1957 54.9314 32.1957 54.6523 32.2515C53.7031 32.2515 52.8099 32.2515 51.8608 32.2515C50.9117 32.2515 49.9626 32.2515 49.0135 32.2515C48.9576 32.2515 48.846 32.2515 48.846 32.1957C48.7343 31.247 48.511 30.2983 48.176 29.4054C47.8969 28.5683 47.5061 27.8428 47.0594 27.1173C46.222 25.778 45.217 24.606 43.933 23.6573C43.7655 23.4899 43.598 23.3783 43.3747 23.2667C43.0955 23.0435 42.7605 22.876 42.4814 22.7086C42.2581 22.597 42.3139 22.4854 42.4814 22.3738C42.7605 22.1506 43.0955 21.9273 43.4305 21.7041C43.9888 21.4251 44.6029 21.1461 45.2729 21.0344C45.3287 21.0344 45.3287 21.0344 45.3845 21.0344C45.6637 21.0344 45.9987 20.9786 46.2778 20.9786C47.2269 20.9786 48.176 20.9786 49.1251 20.9786C50.0184 20.867 50.9675 20.867 51.9166 20.8112Z" fill="white" stroke="white" stroke-width="2" stroke-miterlimit="10" stroke-linecap="round" stroke-linejoin="round"/>
<path d="M6.58296 32.1957C5.63386 32.1957 4.68475 32.1957 3.73565 32.1957C3.51233 32.1399 3.34484 32.1399 3.12152 32.1399C2.89821 32.0283 2.61906 31.9725 2.45157 31.805C1.50247 31.247 1 30.4657 1 29.3496C1 28.4009 1 27.4522 1 26.5034C1 25.5547 1.22332 24.6618 1.66996 23.8248C1.66996 23.7689 1.72578 23.7131 1.72578 23.6573C2.28408 22.8202 2.95404 22.0948 3.79148 21.5925C4.46143 21.2577 5.13139 20.9786 5.85717 20.867C6.13632 20.867 6.35964 20.8112 6.63879 20.8112C7.58789 20.8112 8.53699 20.8112 9.4861 20.8112C10.4352 20.8112 11.3843 20.8112 12.3334 20.8112C12.6684 20.8112 13.0034 20.867 13.3383 20.867C13.9525 21.0344 14.5666 21.2019 15.1249 21.5367C15.4599 21.7599 15.7948 21.9831 16.1298 22.2622C16.2415 22.3738 16.2973 22.4296 16.1298 22.5412C15.7948 22.7086 15.4599 22.9319 15.1249 23.1551C14.9016 23.2667 14.7341 23.4341 14.5666 23.5457C13.7291 24.1596 13.0034 24.9409 12.3334 25.778C12.1659 25.9454 11.9984 26.1686 11.8868 26.3918C11.2726 27.2847 10.7702 28.2334 10.3794 29.2379C9.98856 30.1308 9.82108 31.0796 9.65359 32.0283C9.59776 32.0283 9.54193 32.0841 9.4861 32.0841C8.48116 32.1957 7.53206 32.1957 6.58296 32.1957Z" fill="white" stroke="white" stroke-width="2" stroke-miterlimit="10" stroke-linecap="round" stroke-linejoin="round"/>
<path d="M3.84732 13.3332C3.79149 12.9984 3.79149 12.6635 3.73566 12.2729C3.79149 12.1055 3.79149 11.9381 3.79149 11.7706V11.7148C3.79149 11.6032 3.79149 11.4916 3.79149 11.38C3.84732 11.38 3.84732 11.3242 3.84732 11.2684C3.95897 10.6545 4.18229 10.0965 4.46144 9.53839C5.01974 8.6455 5.68969 7.92002 6.58297 7.41776C7.25292 7.02712 7.9787 6.80389 8.70449 6.69228C8.92781 6.69228 9.20696 6.63647 9.43027 6.63647C9.65359 6.63647 9.87691 6.69228 10.1002 6.69228H10.1561C10.2119 6.69228 10.2119 6.69228 10.2677 6.69228C10.9935 6.8597 11.6635 7.02712 12.2776 7.41776C13.1709 7.92002 13.8408 8.6455 14.3433 9.48259C14.6783 10.0407 14.8457 10.6545 15.0132 11.2684C15.0132 11.6032 15.0691 11.9381 15.0691 12.3287C15.0691 12.6077 15.0132 12.9426 15.0132 13.2216C14.9016 13.8913 14.6783 14.5051 14.3991 15.0632C13.8408 15.9561 13.1709 16.6816 12.2776 17.1838C11.6076 17.5745 10.8818 17.7977 10.1561 17.9093C9.93274 17.9093 9.65359 17.9651 9.43027 17.9651C9.20696 17.9651 8.98364 17.9651 8.76032 17.9093C8.70449 17.9093 8.70449 17.9093 8.64866 17.9093C8.59283 17.9093 8.59283 17.9093 8.537 17.9093C7.86705 17.7419 7.19709 17.5745 6.58297 17.1838C5.68969 16.6816 5.01974 15.9561 4.51727 15.0632C4.18229 14.6168 4.0148 14.0029 3.84732 13.3332Z" fill="white" stroke="white" stroke-width="2" stroke-miterlimit="10" stroke-linecap="round" stroke-linejoin="round"/>
<path d="M54.708 13.0542C54.5964 13.7797 54.373 14.5051 54.0381 15.119C53.4798 15.9561 52.8098 16.6816 51.9724 17.1838C51.3024 17.5745 50.5766 17.7977 49.795 17.9093C49.5717 17.9093 49.3484 17.9651 49.1251 17.9651C48.9017 17.9651 48.6784 17.9093 48.4551 17.9093C48.3993 17.9093 48.3993 17.9093 48.3434 17.9093C48.2876 17.9093 48.2876 17.9093 48.2318 17.9093C47.5618 17.7419 46.8919 17.5745 46.2777 17.1838C45.3845 16.6816 44.7145 15.9561 44.2121 15.119C43.8771 14.561 43.7096 13.9471 43.5421 13.3332C43.5421 12.9984 43.4863 12.6635 43.4863 12.2729C43.5421 11.9381 43.5421 11.6032 43.5979 11.2684C43.7654 10.6545 43.9329 10.0965 44.2121 9.53839C44.7703 8.6455 45.4403 7.92002 46.3336 7.41776C47.0035 7.02712 47.7293 6.80389 48.4551 6.69228C48.6784 6.69228 48.9576 6.63647 49.1809 6.63647C49.4042 6.63647 49.6275 6.69228 49.8508 6.69228H49.9067C49.9625 6.69228 49.9625 6.69228 50.0183 6.69228C50.7441 6.8597 51.4141 7.02712 52.0282 7.41776C52.9215 7.92002 53.5914 8.6455 54.0939 9.48259C54.4289 10.0965 54.5964 10.7103 54.7638 11.3242C54.8197 11.659 54.8197 11.9381 54.8755 12.2729C54.8197 12.4403 54.8197 12.6635 54.8197 12.831V12.8868C54.708 12.9984 54.708 13.0542 54.708 13.0542Z" fill="white" stroke="white" stroke-width="2" stroke-miterlimit="10" stroke-linecap="round" stroke-linejoin="round"/>
</svg>
