<svg width="902" height="643" viewBox="0 0 902 643" fill="none" xmlns="http://www.w3.org/2000/svg">
<g id="work 1">
<g id="reszta">
<path id="Vector" d="M865.874 147.442L502.763 303.513L555.065 447.874L592.424 550.945L601.821 576.905L685.551 608.643L688.555 609.798L775.982 643L817.962 625.051L875.117 600.477L902 588.922L865.874 147.442Z" fill="#F2F2F2"/>
<path id="Vector_2" d="M875.348 585.61L875.271 589.385L875.117 600.477L817.962 625.051L779.294 641.613L777.676 636.221L775.982 643L688.555 609.798L687.168 577.829L686.937 570.665L858.171 559.187L861.483 564.349L862.176 565.35L875.348 585.61Z" fill="#0C2A52"/>
<path id="Vector_3" d="M751.256 245.429C751.256 245.429 739.779 286.796 737.468 286.796C735.157 286.796 759.267 318.996 759.267 318.996L794.931 338.563L807.563 285.718C807.563 285.718 796.086 256.984 798.397 242.04L751.256 245.429Z" fill="#FFB8B8"/>
<path id="Vector_4" d="M769.666 261.529C793.148 261.529 812.185 242.491 812.185 219.007C812.185 195.522 793.148 176.484 769.666 176.484C746.183 176.484 727.146 195.522 727.146 219.007C727.146 242.491 746.183 261.529 769.666 261.529Z" fill="#FFB8B8"/>
<path id="Vector_5" d="M775.366 307.518L741.396 278.014L721.369 287.952L677.694 315.53C677.694 315.53 689.171 563.809 683.471 572.976C683.471 572.976 696.104 601.71 770.821 584.454C845.538 567.199 865.026 564.888 865.026 564.888L848.928 413.209L868.493 317.841L802.865 271.929L782.298 307.441L775.366 307.518Z" fill="#F4B615"/>
<path id="Vector_6" d="M648.962 404.042C648.962 404.042 631.708 458.042 644.341 463.82C656.973 469.597 667.295 467.286 667.295 467.286L686.86 420.142L648.962 404.042Z" fill="#FFB8B8"/>
<path id="Vector_7" d="M888.058 394.797L898.38 443.098V540.776C898.38 540.776 883.436 602.865 871.959 586.765C860.482 570.665 860.713 565.581 860.713 565.581L875.425 543.087L868.493 451.109L850.16 407.277L888.058 394.797Z" fill="#FFB8B8"/>
<path id="Vector_8" d="M809.874 176.484C809.874 176.484 796.086 146.595 769.666 153.528C743.245 160.461 729.842 171.015 727.146 181.029C723.449 194.51 729.072 206.219 729.072 206.219C729.072 206.219 735.311 186.653 748.945 190.196C767.278 194.972 796.086 191.352 796.086 191.352L800.708 232.719C800.708 232.719 805.869 225.246 811.646 229.868C817.423 234.49 828.284 185.651 809.874 176.484Z" fill="#2F2E41"/>
<path id="Vector_9" d="M850.468 404.35L854.628 425.919L895.376 415.134L887.904 395.183L850.468 404.35Z" fill="#0C2A52"/>
<path id="Vector_10" d="M648.192 403.656L641.722 424.687L682.778 434.316L685.551 413.132L648.192 403.656Z" fill="#0C2A52"/>
<path id="Vector_11" d="M842.072 315.53L868.493 317.841C868.493 317.841 898.38 399.42 894.913 401.731C891.447 404.042 850.083 417.831 844.383 414.364C838.683 410.898 842.072 315.53 842.072 315.53Z" fill="#F4B615"/>
<path id="Vector_12" d="M686.937 317.841L677.771 315.53C677.771 315.53 660.517 337.33 654.817 362.674C649.039 387.942 641.029 413.209 645.65 413.209C650.272 413.209 691.636 429.309 691.636 429.309L686.937 317.841Z" fill="#F4B615"/>
<path id="Vector_13" d="M779.833 323.695C784.428 323.695 788.152 319.971 788.152 315.376C788.152 310.781 784.428 307.056 779.833 307.056C775.239 307.056 771.514 310.781 771.514 315.376C771.514 319.971 775.239 323.695 779.833 323.695Z" fill="#0C2A52"/>
<path id="Vector_14" d="M843.998 462.356L755.184 490.319L718.981 375.385C753.182 370.609 782.76 361.288 807.795 347.422C812.416 386.632 824.202 424.995 843.998 462.356Z" fill="#E6E6E6"/>
<path id="Vector_15" d="M835.679 474.836L746.865 502.799L710.662 387.865C744.862 383.088 774.441 373.767 799.476 359.901C804.097 399.112 815.883 437.397 835.679 474.836Z" fill="white"/>
<path id="Vector_16" d="M654.74 430.464C654.74 430.464 640.951 455.731 644.418 463.82C647.884 471.908 676.616 476.453 680.082 476.453C683.548 476.453 724.912 467.286 724.912 467.286C724.912 467.286 788.152 437.397 769.743 422.453C751.333 407.508 716.901 443.175 716.901 443.175H689.325L674.382 432.852L654.74 430.464Z" fill="#FFB8B8"/>
<path id="Vector_17" d="M150.975 103.841H0.770294V171.015H150.975V103.841Z" fill="#F2F2F2"/>
<path id="Vector_18" d="M546.9 322.001H520.711V345.111H546.9V322.001Z" fill="#0C2A52"/>
<path id="Vector_19" d="M494.521 322.001H468.331V345.111H494.521V322.001Z" fill="#0C2A52"/>
<path id="Vector_20" d="M599.279 271.159H573.09V297.35H599.279V271.159Z" fill="#F4B615"/>
<path id="Vector_21" d="M573.09 297.35H546.9V322.001H573.09V297.35Z" fill="#0C2A52"/>
<path id="Vector_22" d="M520.711 297.35H494.521V322.001H520.711V297.35Z" fill="#0C2A52"/>
<path id="Vector_23" d="M210.287 343.57H184.097V366.68H210.287V343.57Z" fill="#F4B615"/>
<path id="Vector_24" d="M445.993 318.919H419.804V343.57H445.993V318.919Z" fill="#0C2A52"/>
<path id="Vector_25" d="M288.856 318.919H262.666V343.57H288.856V318.919Z" fill="#0C2A52"/>
<path id="Vector_26" d="M262.666 292.728H236.477V318.919H262.666V292.728Z" fill="#0C2A52"/>
<path id="Vector_27" d="M393.614 318.919H367.424V343.57H393.614V318.919Z" fill="#0C2A52"/>
<path id="Vector_28" d="M367.424 292.728H341.235V318.919H367.424V292.728Z" fill="#0C2A52"/>
<path id="Vector_29" d="M341.235 318.919H315.045V343.57H341.235V318.919Z" fill="#0C2A52"/>
<path id="Vector_30" d="M236.477 318.919H210.287V343.57H236.477V318.919Z" fill="#0C2A52"/>
<path id="Vector_31" d="M419.804 292.728H393.614V318.919H419.804V292.728Z" fill="#F4B615"/>
<path id="Vector_32" d="M512.006 252.285L498.372 237.726L512.931 224.091L526.565 238.65L512.006 252.285ZM500.606 237.803L512.083 250.128L524.408 238.65L512.931 226.325L500.606 237.803Z" fill="#3F3D56"/>
<path id="Vector_33" d="M327.909 192.276H307.959V172.324H327.909V192.276ZM309.499 190.735H326.368V173.865H309.499V190.735Z" fill="#3F3D56"/>
<path id="Vector_34" d="M698.415 153.759H678.464V133.807H698.415V153.759ZM680.005 152.219H696.874V135.348H680.005V152.219Z" fill="#3F3D56"/>
<path id="Vector_35" d="M195.96 357.513L194.804 356.358C200.196 350.195 204.356 343.031 206.898 335.251C210.903 323.156 212.829 304.129 199.426 281.866C185.715 259.064 185.099 240.576 186.947 229.098C189.027 216.542 194.265 209.532 194.496 209.301L195.806 210.302C195.729 210.379 190.491 217.389 188.565 229.483C186.716 240.73 187.41 258.756 200.812 281.019C214.601 303.821 212.521 323.387 208.438 335.867C203.971 349.271 196.345 357.128 195.96 357.513Z" fill="#3F3D56"/>
<path id="Vector_36" d="M403.936 305.13L402.78 303.975C408.172 297.812 412.332 290.648 414.874 282.868C418.879 270.773 420.805 251.746 407.402 229.483C393.691 206.681 392.998 188.193 394.923 176.715C397.003 164.159 402.241 157.149 402.472 156.918L403.782 157.919C403.705 157.996 398.467 165.006 396.541 177.1C394.692 188.347 395.386 206.373 408.789 228.636C422.577 251.438 420.497 271.004 416.414 283.484C411.947 296.888 404.321 304.745 403.936 305.13Z" fill="#3F3D56"/>
<path id="Vector_37" d="M584.952 285.102L583.797 283.946C589.189 277.783 593.348 270.619 595.89 262.839C599.895 250.745 601.821 231.717 588.418 209.454C574.707 186.653 574.014 168.164 575.94 156.686C578.02 144.13 583.257 137.12 583.489 136.889L584.798 137.89C584.721 137.967 579.483 144.977 577.557 157.072C575.709 168.319 576.402 186.344 589.805 208.607C603.593 231.409 601.513 250.976 597.431 263.455C592.963 276.859 585.337 284.716 584.952 285.102Z" fill="#3F3D56"/>
<path id="Vector_38" d="M112.076 125.026H39.5925V126.643H112.076V125.026Z" fill="#3F3D56"/>
<path id="Vector_39" d="M112.076 136.581H39.5925V138.198H112.076V136.581Z" fill="#3F3D56"/>
<path id="Vector_40" d="M112.076 148.136H39.5925V149.753H112.076V148.136Z" fill="#3F3D56"/>
<path id="Vector_41" d="M518.015 14.8676H445.531V16.4853H518.015V14.8676Z" fill="#3F3D56"/>
<path id="Vector_42" d="M518.015 26.4225H445.531V28.0402H518.015V26.4225Z" fill="#3F3D56"/>
<path id="Vector_43" d="M518.015 37.9775H445.531V39.5953H518.015V37.9775Z" fill="#3F3D56"/>
<path id="Vector_44" d="M688.247 270.619H615.763V272.237H688.247V270.619Z" fill="#3F3D56"/>
<path id="Vector_45" d="M688.247 282.174H615.763V283.792H688.247V282.174Z" fill="#3F3D56"/>
<path id="Vector_46" d="M688.247 293.729H615.763V295.347H688.247V293.729Z" fill="#3F3D56"/>
<path id="Vector_47" d="M233.01 386.17H160.527V387.787H233.01V386.17Z" fill="#3F3D56"/>
<path id="Vector_48" d="M233.01 397.725H160.527V399.343H233.01V397.725Z" fill="#3F3D56"/>
<path id="Vector_49" d="M233.01 409.28H160.527V410.898H233.01V409.28Z" fill="#3F3D56"/>
<path id="Vector_50" d="M106.222 85.1992C118.777 57.082 137.649 38.5939 162.298 30.2742C180.631 24.0345 201.891 23.4953 225.384 28.5025C242.716 32.2771 259.354 38.7479 274.683 47.6068C356.255 94.9825 406.632 95.3677 434.593 87.3562C465.25 78.5744 476.419 58.0834 476.573 57.8523L477.96 58.5456C477.883 58.7767 466.406 79.8069 435.132 88.8198C417.108 93.9811 396.079 94.2122 372.585 89.4361C343.315 83.5045 310.193 69.8695 273.989 48.9164C258.815 40.0575 242.331 33.6637 225.153 29.9661C186.639 21.7235 134.953 24.6508 107.762 85.7385L106.222 85.1992Z" fill="#2F2E41"/>
<path id="Vector_51" d="M197.192 210.302C212.507 210.302 224.922 197.886 224.922 182.57C224.922 167.254 212.507 154.838 197.192 154.838C181.877 154.838 169.462 167.254 169.462 182.57C169.462 197.886 181.877 210.302 197.192 210.302Z" fill="#0C2A52"/>
<path id="Vector_52" d="M406.709 161.771C422.024 161.771 434.439 149.355 434.439 134.039C434.439 118.722 422.024 106.306 406.709 106.306C391.394 106.306 378.979 118.722 378.979 134.039C378.979 149.355 391.394 161.771 406.709 161.771Z" fill="#0C2A52"/>
<path id="Vector_53" d="M587.725 137.12C603.04 137.12 615.455 124.704 615.455 109.388C615.455 94.0717 603.04 81.6556 587.725 81.6556C572.41 81.6556 559.995 94.0717 559.995 109.388C559.995 124.704 572.41 137.12 587.725 137.12Z" fill="#0C2A52"/>
<path id="Vector_54" d="M171.773 171.785H0V83.9667H171.773V171.785ZM1.54056 170.244H170.232V85.5073H1.54056V170.244Z" fill="#3F3D56"/>
<path id="Vector_55" d="M367.424 46.0662H217.219V113.24H367.424V46.0662Z" fill="#F2F2F2"/>
<path id="Vector_56" d="M328.525 67.2504H256.042V68.8681H328.525V67.2504Z" fill="#3F3D56"/>
<path id="Vector_57" d="M328.525 78.8054H256.042V80.4231H328.525V78.8054Z" fill="#3F3D56"/>
<path id="Vector_58" d="M326.214 88.0494H253.731V89.6672H326.214V88.0494Z" fill="#3F3D56"/>
<path id="Vector_59" d="M388.222 114.01H216.449V26.1914H388.222V114.01ZM217.99 112.469H386.681V27.7321H217.99V112.469Z" fill="#3F3D56"/>
<path id="Vector_60" d="M754.876 19.8746H604.671V87.048H754.876V19.8746Z" fill="#F2F2F2"/>
<path id="Vector_61" d="M715.977 41.059H643.493V42.6767H715.977V41.059Z" fill="#3F3D56"/>
<path id="Vector_62" d="M715.977 52.614H643.493V54.2317H715.977V52.614Z" fill="#3F3D56"/>
<path id="Vector_63" d="M715.977 64.1691H643.493V65.7868H715.977V64.1691Z" fill="#3F3D56"/>
<path id="Vector_64" d="M775.674 87.8184H603.901V0H775.674V87.8184ZM605.442 86.2777H774.133V1.54067H605.442V86.2777Z" fill="#3F3D56"/>
</g>
<path id="tick1" d="M209.69 170.729C210.048 170.33 210.286 170.064 210.643 169.665C210.881 169.266 211.238 169 211.714 169C212.31 169 212.786 169.133 213.143 169.665C213.381 169.931 213.619 170.197 213.857 170.463C214.095 170.729 214.333 171.128 214.69 171.394C214.81 171.528 215.048 171.794 215.167 171.927C215.524 172.326 215.881 172.725 216 173.257C216 173.39 216 173.656 216 173.789C216 173.922 216 173.922 216 174.055C215.881 174.454 215.643 174.853 215.405 175.252C215.048 175.518 214.81 175.917 214.452 176.317C214.214 176.583 213.976 176.716 213.857 176.982C213.381 177.514 212.905 178.046 212.31 178.711C212.071 178.977 211.833 179.243 211.595 179.509C211.238 179.908 210.762 180.44 210.286 180.972C210.048 181.239 209.81 181.372 209.69 181.638C209.214 182.17 208.619 182.702 208.143 183.367C207.905 183.633 207.667 183.899 207.429 184.165C206.952 184.697 206.357 185.229 205.881 185.894C205.643 186.161 205.405 186.294 205.286 186.56C204.81 187.092 204.333 187.624 203.738 188.289C203.5 188.555 203.262 188.688 203.143 188.954C202.786 189.353 202.548 189.619 202.19 190.018C201.952 190.284 201.833 190.417 201.595 190.683C201.357 190.95 201.119 191.216 200.881 191.482C200.405 192.014 199.81 192.546 199.333 193.211C199.095 193.477 198.857 193.61 198.738 193.876C198.262 194.408 197.786 194.94 197.19 195.606C196.952 195.872 196.714 196.138 196.476 196.404C196.238 196.67 195.881 196.936 195.643 197.335C195.286 197.734 194.929 198 194.333 198C193.738 198 193.381 197.734 192.905 197.335C192.667 197.069 192.31 196.67 192.071 196.404C191.833 196.138 191.595 195.872 191.357 195.606C190.881 195.073 190.405 194.408 189.81 193.876C189.571 193.61 189.333 193.344 189.095 193.078C188.619 192.546 188.143 192.014 187.667 191.482C187.429 191.216 187.19 190.95 186.952 190.683C186.476 190.151 186 189.486 185.405 188.954C185.167 188.688 184.929 188.422 184.69 188.156C184.214 187.624 183.738 186.959 183.143 186.427C182.905 186.161 182.667 185.894 182.429 185.628C182.19 185.362 181.952 185.096 181.714 184.83C181.357 184.431 181.119 184.165 181 183.633C181 183.5 181 183.367 181 183.234C181 183.101 181 182.968 181 182.835C181.119 182.303 181.357 182.037 181.595 181.638C182.31 181.505 182.548 181.239 182.786 180.972C183.024 180.706 183.381 180.307 183.619 180.041C183.857 179.775 184.095 179.642 184.333 179.376C184.69 178.844 185.286 178.711 185.881 178.711C186.357 178.844 186.833 179.11 187.19 179.509C187.429 179.908 187.786 180.174 188.024 180.44C188.143 180.573 188.262 180.839 188.5 180.972C189.095 181.638 189.571 182.17 190.167 182.835C190.286 183.101 190.524 183.234 190.643 183.367C191.238 184.032 191.714 184.564 192.31 185.229C192.429 185.495 192.667 185.628 192.786 185.761C193.262 186.427 193.857 186.959 194.452 187.624H194.571C195.167 186.959 195.643 186.427 196.238 185.761C196.357 185.628 196.595 185.362 196.714 185.229C197.31 184.564 197.786 184.032 198.381 183.367C198.619 183.234 198.738 182.968 198.857 182.835C199.333 182.303 199.929 181.638 200.405 180.972C200.643 180.839 200.762 180.573 200.881 180.44C201.476 179.775 201.952 179.243 202.548 178.578C202.667 178.445 202.905 178.179 203.024 178.046C203.619 177.381 204.214 176.849 204.69 176.183C204.929 175.917 205.167 175.784 205.286 175.651C205.881 174.986 206.357 174.454 206.952 173.789C207.19 173.656 207.31 173.39 207.429 173.257C208.024 172.592 208.5 172.06 209.095 171.394C209.333 171.128 209.452 170.862 209.69 170.729Z" fill="#F4B615"/>
<path id="tick2" d="M417.69 120.729C418.048 120.33 418.286 120.064 418.643 119.665C418.881 119.266 419.238 119 419.714 119C420.31 119 420.786 119.133 421.143 119.665C421.381 119.931 421.619 120.197 421.857 120.463C422.095 120.729 422.333 121.128 422.69 121.394C422.81 121.528 423.048 121.794 423.167 121.927C423.524 122.326 423.881 122.725 424 123.257C424 123.39 424 123.656 424 123.789C424 123.922 424 123.922 424 124.055C423.881 124.454 423.643 124.853 423.405 125.252C423.048 125.518 422.81 125.917 422.452 126.317C422.214 126.583 421.976 126.716 421.857 126.982C421.381 127.514 420.905 128.046 420.31 128.711C420.071 128.977 419.833 129.243 419.595 129.509C419.238 129.908 418.762 130.44 418.286 130.972C418.048 131.239 417.81 131.372 417.69 131.638C417.214 132.17 416.619 132.702 416.143 133.367C415.905 133.633 415.667 133.899 415.429 134.165C414.952 134.697 414.357 135.229 413.881 135.894C413.643 136.161 413.405 136.294 413.286 136.56C412.81 137.092 412.333 137.624 411.738 138.289C411.5 138.555 411.262 138.688 411.143 138.954C410.786 139.353 410.548 139.619 410.19 140.018C409.952 140.284 409.833 140.417 409.595 140.683C409.357 140.95 409.119 141.216 408.881 141.482C408.405 142.014 407.81 142.546 407.333 143.211C407.095 143.477 406.857 143.61 406.738 143.876C406.262 144.408 405.786 144.94 405.19 145.606C404.952 145.872 404.714 146.138 404.476 146.404C404.238 146.67 403.881 146.936 403.643 147.335C403.286 147.734 402.929 148 402.333 148C401.738 148 401.381 147.734 400.905 147.335C400.667 147.069 400.31 146.67 400.071 146.404C399.833 146.138 399.595 145.872 399.357 145.606C398.881 145.073 398.405 144.408 397.81 143.876C397.571 143.61 397.333 143.344 397.095 143.078C396.619 142.546 396.143 142.014 395.667 141.482C395.429 141.216 395.19 140.95 394.952 140.683C394.476 140.151 394 139.486 393.405 138.954C393.167 138.688 392.929 138.422 392.69 138.156C392.214 137.624 391.738 136.959 391.143 136.427C390.905 136.161 390.667 135.894 390.429 135.628C390.19 135.362 389.952 135.096 389.714 134.83C389.357 134.431 389.119 134.165 389 133.633C389 133.5 389 133.367 389 133.234C389 133.101 389 132.968 389 132.835C389.119 132.303 389.357 132.037 389.595 131.638C390.31 131.505 390.548 131.239 390.786 130.972C391.024 130.706 391.381 130.307 391.619 130.041C391.857 129.775 392.095 129.642 392.333 129.376C392.69 128.844 393.286 128.711 393.881 128.711C394.357 128.844 394.833 129.11 395.19 129.509C395.429 129.908 395.786 130.174 396.024 130.44C396.143 130.573 396.262 130.839 396.5 130.972C397.095 131.638 397.571 132.17 398.167 132.835C398.286 133.101 398.524 133.234 398.643 133.367C399.238 134.032 399.714 134.564 400.31 135.229C400.429 135.495 400.667 135.628 400.786 135.761C401.262 136.427 401.857 136.959 402.452 137.624H402.571C403.167 136.959 403.643 136.427 404.238 135.761C404.357 135.628 404.595 135.362 404.714 135.229C405.31 134.564 405.786 134.032 406.381 133.367C406.619 133.234 406.738 132.968 406.857 132.835C407.333 132.303 407.929 131.638 408.405 130.972C408.643 130.839 408.762 130.573 408.881 130.44C409.476 129.775 409.952 129.243 410.548 128.578C410.667 128.445 410.905 128.179 411.024 128.046C411.619 127.381 412.214 126.849 412.69 126.183C412.929 125.917 413.167 125.784 413.286 125.651C413.881 124.986 414.357 124.454 414.952 123.789C415.19 123.656 415.31 123.39 415.429 123.257C416.024 122.592 416.5 122.06 417.095 121.394C417.333 121.128 417.452 120.862 417.69 120.729Z" fill="#F4B615"/>
<path id="tick3" d="M598.69 96.7294C599.048 96.3303 599.286 96.0642 599.643 95.6651C599.881 95.2661 600.238 95 600.714 95C601.31 95 601.786 95.133 602.143 95.6651C602.381 95.9312 602.619 96.1972 602.857 96.4633C603.095 96.7294 603.333 97.1284 603.69 97.3945C603.81 97.5275 604.048 97.7936 604.167 97.9266C604.524 98.3257 604.881 98.7248 605 99.2569C605 99.3899 605 99.656 605 99.789C605 99.922 605 99.922 605 100.055C604.881 100.454 604.643 100.853 604.405 101.252C604.048 101.518 603.81 101.917 603.452 102.317C603.214 102.583 602.976 102.716 602.857 102.982C602.381 103.514 601.905 104.046 601.31 104.711C601.071 104.977 600.833 105.243 600.595 105.509C600.238 105.908 599.762 106.44 599.286 106.972C599.048 107.239 598.81 107.372 598.69 107.638C598.214 108.17 597.619 108.702 597.143 109.367C596.905 109.633 596.667 109.899 596.429 110.165C595.952 110.697 595.357 111.229 594.881 111.894C594.643 112.161 594.405 112.294 594.286 112.56C593.81 113.092 593.333 113.624 592.738 114.289C592.5 114.555 592.262 114.688 592.143 114.954C591.786 115.353 591.548 115.619 591.19 116.018C590.952 116.284 590.833 116.417 590.595 116.683C590.357 116.95 590.119 117.216 589.881 117.482C589.405 118.014 588.81 118.546 588.333 119.211C588.095 119.477 587.857 119.61 587.738 119.876C587.262 120.408 586.786 120.94 586.19 121.606C585.952 121.872 585.714 122.138 585.476 122.404C585.238 122.67 584.881 122.936 584.643 123.335C584.286 123.734 583.929 124 583.333 124C582.738 124 582.381 123.734 581.905 123.335C581.667 123.069 581.31 122.67 581.071 122.404C580.833 122.138 580.595 121.872 580.357 121.606C579.881 121.073 579.405 120.408 578.81 119.876C578.571 119.61 578.333 119.344 578.095 119.078C577.619 118.546 577.143 118.014 576.667 117.482C576.429 117.216 576.19 116.95 575.952 116.683C575.476 116.151 575 115.486 574.405 114.954C574.167 114.688 573.929 114.422 573.69 114.156C573.214 113.624 572.738 112.959 572.143 112.427C571.905 112.161 571.667 111.894 571.429 111.628C571.19 111.362 570.952 111.096 570.714 110.83C570.357 110.431 570.119 110.165 570 109.633C570 109.5 570 109.367 570 109.234C570 109.101 570 108.968 570 108.835C570.119 108.303 570.357 108.037 570.595 107.638C571.31 107.505 571.548 107.239 571.786 106.972C572.024 106.706 572.381 106.307 572.619 106.041C572.857 105.775 573.095 105.642 573.333 105.376C573.69 104.844 574.286 104.711 574.881 104.711C575.357 104.844 575.833 105.11 576.19 105.509C576.429 105.908 576.786 106.174 577.024 106.44C577.143 106.573 577.262 106.839 577.5 106.972C578.095 107.638 578.571 108.17 579.167 108.835C579.286 109.101 579.524 109.234 579.643 109.367C580.238 110.032 580.714 110.564 581.31 111.229C581.429 111.495 581.667 111.628 581.786 111.761C582.262 112.427 582.857 112.959 583.452 113.624H583.571C584.167 112.959 584.643 112.427 585.238 111.761C585.357 111.628 585.595 111.362 585.714 111.229C586.31 110.564 586.786 110.032 587.381 109.367C587.619 109.234 587.738 108.968 587.857 108.835C588.333 108.303 588.929 107.638 589.405 106.972C589.643 106.839 589.762 106.573 589.881 106.44C590.476 105.775 590.952 105.243 591.548 104.578C591.667 104.445 591.905 104.179 592.024 104.046C592.619 103.381 593.214 102.849 593.69 102.183C593.929 101.917 594.167 101.784 594.286 101.651C594.881 100.986 595.357 100.454 595.952 99.789C596.19 99.656 596.31 99.3899 596.429 99.2569C597.024 98.5917 597.5 98.0596 598.095 97.3945C598.333 97.1284 598.452 96.8624 598.69 96.7294Z" fill="#F4B615"/>
</g>
</svg>
