<svg width="16" height="11" viewBox="0 0 16 11" fill="none" xmlns="http://www.w3.org/2000/svg">
<path d="M13.1156 0.655963C13.2789 0.504587 13.3878 0.40367 13.551 0.252294C13.6599 0.100917 13.8231 0 14.0408 0C14.3129 0 14.5306 0.0504587 14.6939 0.252294C14.8027 0.353211 14.9116 0.454129 15.0204 0.555046C15.1293 0.655963 15.2381 0.807339 15.4014 0.908257C15.4558 0.958716 15.5646 1.05963 15.619 1.11009C15.7823 1.26147 15.9456 1.41284 16 1.61468C16 1.66514 16 1.76606 16 1.81651C16 1.86697 16 1.86697 16 1.91743C15.9456 2.06881 15.8367 2.22018 15.7279 2.37156C15.5646 2.47248 15.4558 2.62385 15.2925 2.77523C15.1837 2.87615 15.0748 2.92661 15.0204 3.02752C14.8027 3.22936 14.585 3.43119 14.3129 3.68349C14.2041 3.7844 14.0952 3.88532 13.9864 3.98624C13.8231 4.13762 13.6054 4.33945 13.3878 4.54129C13.2789 4.6422 13.1701 4.69266 13.1156 4.79358C12.898 4.99541 12.6259 5.19725 12.4082 5.44954C12.2993 5.55046 12.1905 5.65138 12.0816 5.75229C11.8639 5.95413 11.5918 6.15596 11.3742 6.40826C11.2653 6.50917 11.1565 6.55963 11.102 6.66055C10.8844 6.86239 10.6667 7.06422 10.3946 7.31651C10.2857 7.41743 10.1769 7.46789 10.1224 7.56881C9.95918 7.72018 9.85034 7.8211 9.68707 7.97248C9.57823 8.0734 9.52381 8.12385 9.41497 8.22477C9.30612 8.32569 9.19728 8.42661 9.08844 8.52752C8.87075 8.72936 8.59864 8.93119 8.38095 9.18349C8.27211 9.2844 8.16327 9.33486 8.10884 9.43578C7.89116 9.63762 7.67347 9.83945 7.40136 10.0917C7.29252 10.1927 7.18367 10.2936 7.07483 10.3945C6.96599 10.4954 6.80272 10.5963 6.69388 10.7477C6.53061 10.8991 6.36735 11 6.09524 11C5.82313 11 5.65986 10.8991 5.44218 10.7477C5.33333 10.6468 5.17007 10.4954 5.06122 10.3945C4.95238 10.2936 4.84354 10.1927 4.73469 10.0917C4.51701 9.88991 4.29932 9.63762 4.02721 9.43578C3.91837 9.33486 3.80952 9.23395 3.70068 9.13303C3.48299 8.93119 3.26531 8.72936 3.04762 8.52752C2.93878 8.42661 2.82993 8.32569 2.72109 8.22477C2.5034 8.02294 2.28571 7.77064 2.01361 7.56881C1.90476 7.46789 1.79592 7.36697 1.68707 7.26606C1.46939 7.06422 1.2517 6.81193 0.979592 6.61009C0.870748 6.50918 0.761905 6.40826 0.653061 6.30734C0.544218 6.20642 0.435374 6.1055 0.326531 6.00459C0.163265 5.85321 0.0544218 5.75229 0 5.55046C0 5.5 0 5.44954 0 5.39908C0 5.34862 0 5.29817 0 5.24771C0.0544218 5.04587 0.163265 4.94495 0.272109 4.79358C0.598639 4.74312 0.707483 4.6422 0.816327 4.54129C0.92517 4.44037 1.08844 4.28899 1.19728 4.18807C1.30612 4.08716 1.41497 4.0367 1.52381 3.93578C1.68708 3.73395 1.95918 3.68349 2.23129 3.68349C2.44898 3.73395 2.66667 3.83486 2.82993 3.98624C2.93878 4.13762 3.10204 4.23853 3.21088 4.33945C3.26531 4.38991 3.31973 4.49083 3.42857 4.54129C3.70068 4.79358 3.91837 4.99541 4.19048 5.24771C4.2449 5.34862 4.35374 5.39908 4.40816 5.44954C4.68027 5.70184 4.89796 5.90367 5.17007 6.15596C5.22449 6.25688 5.33333 6.30734 5.38775 6.3578C5.60544 6.61009 5.87755 6.81193 6.14966 7.06422H6.20408C6.47619 6.81193 6.69388 6.61009 6.96599 6.3578C7.02041 6.30734 7.12925 6.20642 7.18367 6.15596C7.45578 5.90367 7.67347 5.70184 7.94558 5.44954C8.05442 5.39908 8.10884 5.29817 8.16327 5.24771C8.38095 5.04587 8.65306 4.79358 8.87075 4.54129C8.97959 4.49083 9.03401 4.38991 9.08844 4.33945C9.36054 4.08716 9.57823 3.88532 9.85034 3.63303C9.90476 3.58257 10.0136 3.48165 10.068 3.43119C10.3401 3.1789 10.6122 2.97706 10.8299 2.72477C10.9388 2.62385 11.0476 2.57339 11.102 2.52294C11.3742 2.27064 11.5918 2.06881 11.8639 1.81651C11.9728 1.76606 12.0272 1.66514 12.0816 1.61468C12.3537 1.36239 12.5714 1.16055 12.8435 0.908257C12.9524 0.807339 13.0068 0.706422 13.1156 0.655963Z" fill="#F4B615"/>
</svg>
